%TF.GenerationSoftware,KiCad,Pcbnew,9.0.7*%
%TF.CreationDate,2026-04-21T17:29:31+02:00*%
%TF.ProjectId,openbms-load,6f70656e-626d-4732-9d6c-6f61642e6b69,Rev  A*%
%TF.SameCoordinates,Original*%
%TF.FileFunction,Legend,Top*%
%TF.FilePolarity,Positive*%
%FSLAX46Y46*%
G04 Gerber Fmt 4.6, Leading zero omitted, Abs format (unit mm)*
G04 Created by KiCad (PCBNEW 9.0.7) date 2026-04-21 17:29:31*
%MOMM*%
%LPD*%
G01*
G04 APERTURE LIST*
%ADD10C,0.300000*%
%ADD11C,0.700000*%
%ADD12C,0.400000*%
%ADD13C,0.800000*%
%ADD14C,1.000000*%
%ADD15C,0.100000*%
%ADD16C,0.120000*%
%ADD17C,0.200000*%
%ADD18C,0.022000*%
G04 APERTURE END LIST*
D10*
X299500000Y-296000000D02*
X299500000Y-295000000D01*
X355000000Y-286000000D02*
X396000000Y-286000000D01*
X396000000Y-292000000D01*
X355000000Y-292000000D01*
X355000000Y-286000000D01*
X343000000Y-295000000D02*
X338000000Y-295000000D01*
X296500000Y-295000000D02*
X301500000Y-295000000D01*
X299500000Y-296000000D02*
X301500000Y-295000000D01*
X301500000Y-295000000D02*
X299500000Y-294000000D01*
X355000000Y-280000000D02*
X396000000Y-280000000D01*
X396000000Y-286000000D01*
X355000000Y-286000000D01*
X355000000Y-280000000D01*
X359000000Y-280000000D02*
X359000000Y-292000000D01*
X340000000Y-294000000D02*
X340000000Y-295000000D01*
X338000000Y-295000000D02*
X340000000Y-296000000D01*
X340000000Y-296000000D02*
X340000000Y-295000000D01*
X299500000Y-294000000D02*
X299500000Y-295000000D01*
X340000000Y-294000000D02*
X338000000Y-295000000D01*
D11*
X171746240Y-287596457D02*
X172317668Y-287596457D01*
X172317668Y-287596457D02*
X172603383Y-287739314D01*
X172603383Y-287739314D02*
X172889097Y-288025028D01*
X172889097Y-288025028D02*
X173031954Y-288596457D01*
X173031954Y-288596457D02*
X173031954Y-289596457D01*
X173031954Y-289596457D02*
X172889097Y-290167885D01*
X172889097Y-290167885D02*
X172603383Y-290453600D01*
X172603383Y-290453600D02*
X172317668Y-290596457D01*
X172317668Y-290596457D02*
X171746240Y-290596457D01*
X171746240Y-290596457D02*
X171460526Y-290453600D01*
X171460526Y-290453600D02*
X171174811Y-290167885D01*
X171174811Y-290167885D02*
X171031954Y-289596457D01*
X171031954Y-289596457D02*
X171031954Y-288596457D01*
X171031954Y-288596457D02*
X171174811Y-288025028D01*
X171174811Y-288025028D02*
X171460526Y-287739314D01*
X171460526Y-287739314D02*
X171746240Y-287596457D01*
X174317668Y-288596457D02*
X174317668Y-291596457D01*
X174317668Y-288739314D02*
X174603383Y-288596457D01*
X174603383Y-288596457D02*
X175174811Y-288596457D01*
X175174811Y-288596457D02*
X175460525Y-288739314D01*
X175460525Y-288739314D02*
X175603383Y-288882171D01*
X175603383Y-288882171D02*
X175746240Y-289167885D01*
X175746240Y-289167885D02*
X175746240Y-290025028D01*
X175746240Y-290025028D02*
X175603383Y-290310742D01*
X175603383Y-290310742D02*
X175460525Y-290453600D01*
X175460525Y-290453600D02*
X175174811Y-290596457D01*
X175174811Y-290596457D02*
X174603383Y-290596457D01*
X174603383Y-290596457D02*
X174317668Y-290453600D01*
X178174811Y-290453600D02*
X177889097Y-290596457D01*
X177889097Y-290596457D02*
X177317669Y-290596457D01*
X177317669Y-290596457D02*
X177031954Y-290453600D01*
X177031954Y-290453600D02*
X176889097Y-290167885D01*
X176889097Y-290167885D02*
X176889097Y-289025028D01*
X176889097Y-289025028D02*
X177031954Y-288739314D01*
X177031954Y-288739314D02*
X177317669Y-288596457D01*
X177317669Y-288596457D02*
X177889097Y-288596457D01*
X177889097Y-288596457D02*
X178174811Y-288739314D01*
X178174811Y-288739314D02*
X178317669Y-289025028D01*
X178317669Y-289025028D02*
X178317669Y-289310742D01*
X178317669Y-289310742D02*
X176889097Y-289596457D01*
X179603383Y-288596457D02*
X179603383Y-290596457D01*
X179603383Y-288882171D02*
X179746240Y-288739314D01*
X179746240Y-288739314D02*
X180031955Y-288596457D01*
X180031955Y-288596457D02*
X180460526Y-288596457D01*
X180460526Y-288596457D02*
X180746240Y-288739314D01*
X180746240Y-288739314D02*
X180889098Y-289025028D01*
X180889098Y-289025028D02*
X180889098Y-290596457D01*
X183317669Y-289025028D02*
X183746241Y-289167885D01*
X183746241Y-289167885D02*
X183889098Y-289310742D01*
X183889098Y-289310742D02*
X184031955Y-289596457D01*
X184031955Y-289596457D02*
X184031955Y-290025028D01*
X184031955Y-290025028D02*
X183889098Y-290310742D01*
X183889098Y-290310742D02*
X183746241Y-290453600D01*
X183746241Y-290453600D02*
X183460526Y-290596457D01*
X183460526Y-290596457D02*
X182317669Y-290596457D01*
X182317669Y-290596457D02*
X182317669Y-287596457D01*
X182317669Y-287596457D02*
X183317669Y-287596457D01*
X183317669Y-287596457D02*
X183603384Y-287739314D01*
X183603384Y-287739314D02*
X183746241Y-287882171D01*
X183746241Y-287882171D02*
X183889098Y-288167885D01*
X183889098Y-288167885D02*
X183889098Y-288453600D01*
X183889098Y-288453600D02*
X183746241Y-288739314D01*
X183746241Y-288739314D02*
X183603384Y-288882171D01*
X183603384Y-288882171D02*
X183317669Y-289025028D01*
X183317669Y-289025028D02*
X182317669Y-289025028D01*
X186603384Y-290596457D02*
X186603384Y-289025028D01*
X186603384Y-289025028D02*
X186460526Y-288739314D01*
X186460526Y-288739314D02*
X186174812Y-288596457D01*
X186174812Y-288596457D02*
X185603384Y-288596457D01*
X185603384Y-288596457D02*
X185317669Y-288739314D01*
X186603384Y-290453600D02*
X186317669Y-290596457D01*
X186317669Y-290596457D02*
X185603384Y-290596457D01*
X185603384Y-290596457D02*
X185317669Y-290453600D01*
X185317669Y-290453600D02*
X185174812Y-290167885D01*
X185174812Y-290167885D02*
X185174812Y-289882171D01*
X185174812Y-289882171D02*
X185317669Y-289596457D01*
X185317669Y-289596457D02*
X185603384Y-289453600D01*
X185603384Y-289453600D02*
X186317669Y-289453600D01*
X186317669Y-289453600D02*
X186603384Y-289310742D01*
X187603384Y-288596457D02*
X188746241Y-288596457D01*
X188031955Y-287596457D02*
X188031955Y-290167885D01*
X188031955Y-290167885D02*
X188174812Y-290453600D01*
X188174812Y-290453600D02*
X188460527Y-290596457D01*
X188460527Y-290596457D02*
X188746241Y-290596457D01*
X189317670Y-288596457D02*
X190460527Y-288596457D01*
X189746241Y-287596457D02*
X189746241Y-290167885D01*
X189746241Y-290167885D02*
X189889098Y-290453600D01*
X189889098Y-290453600D02*
X190174813Y-290596457D01*
X190174813Y-290596457D02*
X190460527Y-290596457D01*
X193317670Y-287596457D02*
X195031956Y-287596457D01*
X194174813Y-290596457D02*
X194174813Y-287596457D01*
X197174812Y-290453600D02*
X196889098Y-290596457D01*
X196889098Y-290596457D02*
X196317670Y-290596457D01*
X196317670Y-290596457D02*
X196031955Y-290453600D01*
X196031955Y-290453600D02*
X195889098Y-290167885D01*
X195889098Y-290167885D02*
X195889098Y-289025028D01*
X195889098Y-289025028D02*
X196031955Y-288739314D01*
X196031955Y-288739314D02*
X196317670Y-288596457D01*
X196317670Y-288596457D02*
X196889098Y-288596457D01*
X196889098Y-288596457D02*
X197174812Y-288739314D01*
X197174812Y-288739314D02*
X197317670Y-289025028D01*
X197317670Y-289025028D02*
X197317670Y-289310742D01*
X197317670Y-289310742D02*
X195889098Y-289596457D01*
X199889099Y-290596457D02*
X199889099Y-289025028D01*
X199889099Y-289025028D02*
X199746241Y-288739314D01*
X199746241Y-288739314D02*
X199460527Y-288596457D01*
X199460527Y-288596457D02*
X198889099Y-288596457D01*
X198889099Y-288596457D02*
X198603384Y-288739314D01*
X199889099Y-290453600D02*
X199603384Y-290596457D01*
X199603384Y-290596457D02*
X198889099Y-290596457D01*
X198889099Y-290596457D02*
X198603384Y-290453600D01*
X198603384Y-290453600D02*
X198460527Y-290167885D01*
X198460527Y-290167885D02*
X198460527Y-289882171D01*
X198460527Y-289882171D02*
X198603384Y-289596457D01*
X198603384Y-289596457D02*
X198889099Y-289453600D01*
X198889099Y-289453600D02*
X199603384Y-289453600D01*
X199603384Y-289453600D02*
X199889099Y-289310742D01*
X201317670Y-290596457D02*
X201317670Y-288596457D01*
X201317670Y-288882171D02*
X201460527Y-288739314D01*
X201460527Y-288739314D02*
X201746242Y-288596457D01*
X201746242Y-288596457D02*
X202174813Y-288596457D01*
X202174813Y-288596457D02*
X202460527Y-288739314D01*
X202460527Y-288739314D02*
X202603385Y-289025028D01*
X202603385Y-289025028D02*
X202603385Y-290596457D01*
X202603385Y-289025028D02*
X202746242Y-288739314D01*
X202746242Y-288739314D02*
X203031956Y-288596457D01*
X203031956Y-288596457D02*
X203460527Y-288596457D01*
X203460527Y-288596457D02*
X203746242Y-288739314D01*
X203746242Y-288739314D02*
X203889099Y-289025028D01*
X203889099Y-289025028D02*
X203889099Y-290596457D01*
D12*
X141977442Y-290782225D02*
X141977442Y-287782225D01*
X141977442Y-287782225D02*
X142691728Y-287782225D01*
X142691728Y-287782225D02*
X143120299Y-287925082D01*
X143120299Y-287925082D02*
X143406014Y-288210796D01*
X143406014Y-288210796D02*
X143548871Y-288496510D01*
X143548871Y-288496510D02*
X143691728Y-289067939D01*
X143691728Y-289067939D02*
X143691728Y-289496510D01*
X143691728Y-289496510D02*
X143548871Y-290067939D01*
X143548871Y-290067939D02*
X143406014Y-290353653D01*
X143406014Y-290353653D02*
X143120299Y-290639368D01*
X143120299Y-290639368D02*
X142691728Y-290782225D01*
X142691728Y-290782225D02*
X141977442Y-290782225D01*
X146120299Y-290639368D02*
X145834585Y-290782225D01*
X145834585Y-290782225D02*
X145263157Y-290782225D01*
X145263157Y-290782225D02*
X144977442Y-290639368D01*
X144977442Y-290639368D02*
X144834585Y-290353653D01*
X144834585Y-290353653D02*
X144834585Y-289210796D01*
X144834585Y-289210796D02*
X144977442Y-288925082D01*
X144977442Y-288925082D02*
X145263157Y-288782225D01*
X145263157Y-288782225D02*
X145834585Y-288782225D01*
X145834585Y-288782225D02*
X146120299Y-288925082D01*
X146120299Y-288925082D02*
X146263157Y-289210796D01*
X146263157Y-289210796D02*
X146263157Y-289496510D01*
X146263157Y-289496510D02*
X144834585Y-289782225D01*
X147406014Y-290639368D02*
X147691728Y-290782225D01*
X147691728Y-290782225D02*
X148263157Y-290782225D01*
X148263157Y-290782225D02*
X148548871Y-290639368D01*
X148548871Y-290639368D02*
X148691728Y-290353653D01*
X148691728Y-290353653D02*
X148691728Y-290210796D01*
X148691728Y-290210796D02*
X148548871Y-289925082D01*
X148548871Y-289925082D02*
X148263157Y-289782225D01*
X148263157Y-289782225D02*
X147834586Y-289782225D01*
X147834586Y-289782225D02*
X147548871Y-289639368D01*
X147548871Y-289639368D02*
X147406014Y-289353653D01*
X147406014Y-289353653D02*
X147406014Y-289210796D01*
X147406014Y-289210796D02*
X147548871Y-288925082D01*
X147548871Y-288925082D02*
X147834586Y-288782225D01*
X147834586Y-288782225D02*
X148263157Y-288782225D01*
X148263157Y-288782225D02*
X148548871Y-288925082D01*
X149977442Y-290782225D02*
X149977442Y-288782225D01*
X149977442Y-287782225D02*
X149834585Y-287925082D01*
X149834585Y-287925082D02*
X149977442Y-288067939D01*
X149977442Y-288067939D02*
X150120299Y-287925082D01*
X150120299Y-287925082D02*
X149977442Y-287782225D01*
X149977442Y-287782225D02*
X149977442Y-288067939D01*
X152691728Y-288782225D02*
X152691728Y-291210796D01*
X152691728Y-291210796D02*
X152548870Y-291496510D01*
X152548870Y-291496510D02*
X152406013Y-291639368D01*
X152406013Y-291639368D02*
X152120299Y-291782225D01*
X152120299Y-291782225D02*
X151691728Y-291782225D01*
X151691728Y-291782225D02*
X151406013Y-291639368D01*
X152691728Y-290639368D02*
X152406013Y-290782225D01*
X152406013Y-290782225D02*
X151834585Y-290782225D01*
X151834585Y-290782225D02*
X151548870Y-290639368D01*
X151548870Y-290639368D02*
X151406013Y-290496510D01*
X151406013Y-290496510D02*
X151263156Y-290210796D01*
X151263156Y-290210796D02*
X151263156Y-289353653D01*
X151263156Y-289353653D02*
X151406013Y-289067939D01*
X151406013Y-289067939D02*
X151548870Y-288925082D01*
X151548870Y-288925082D02*
X151834585Y-288782225D01*
X151834585Y-288782225D02*
X152406013Y-288782225D01*
X152406013Y-288782225D02*
X152691728Y-288925082D01*
X154120299Y-288782225D02*
X154120299Y-290782225D01*
X154120299Y-289067939D02*
X154263156Y-288925082D01*
X154263156Y-288925082D02*
X154548871Y-288782225D01*
X154548871Y-288782225D02*
X154977442Y-288782225D01*
X154977442Y-288782225D02*
X155263156Y-288925082D01*
X155263156Y-288925082D02*
X155406014Y-289210796D01*
X155406014Y-289210796D02*
X155406014Y-290782225D01*
X157977442Y-290639368D02*
X157691728Y-290782225D01*
X157691728Y-290782225D02*
X157120300Y-290782225D01*
X157120300Y-290782225D02*
X156834585Y-290639368D01*
X156834585Y-290639368D02*
X156691728Y-290353653D01*
X156691728Y-290353653D02*
X156691728Y-289210796D01*
X156691728Y-289210796D02*
X156834585Y-288925082D01*
X156834585Y-288925082D02*
X157120300Y-288782225D01*
X157120300Y-288782225D02*
X157691728Y-288782225D01*
X157691728Y-288782225D02*
X157977442Y-288925082D01*
X157977442Y-288925082D02*
X158120300Y-289210796D01*
X158120300Y-289210796D02*
X158120300Y-289496510D01*
X158120300Y-289496510D02*
X156691728Y-289782225D01*
X160691729Y-290782225D02*
X160691729Y-287782225D01*
X160691729Y-290639368D02*
X160406014Y-290782225D01*
X160406014Y-290782225D02*
X159834586Y-290782225D01*
X159834586Y-290782225D02*
X159548871Y-290639368D01*
X159548871Y-290639368D02*
X159406014Y-290496510D01*
X159406014Y-290496510D02*
X159263157Y-290210796D01*
X159263157Y-290210796D02*
X159263157Y-289353653D01*
X159263157Y-289353653D02*
X159406014Y-289067939D01*
X159406014Y-289067939D02*
X159548871Y-288925082D01*
X159548871Y-288925082D02*
X159834586Y-288782225D01*
X159834586Y-288782225D02*
X160406014Y-288782225D01*
X160406014Y-288782225D02*
X160691729Y-288925082D01*
X164406014Y-290782225D02*
X164406014Y-287782225D01*
X164406014Y-288925082D02*
X164691729Y-288782225D01*
X164691729Y-288782225D02*
X165263157Y-288782225D01*
X165263157Y-288782225D02*
X165548871Y-288925082D01*
X165548871Y-288925082D02*
X165691729Y-289067939D01*
X165691729Y-289067939D02*
X165834586Y-289353653D01*
X165834586Y-289353653D02*
X165834586Y-290210796D01*
X165834586Y-290210796D02*
X165691729Y-290496510D01*
X165691729Y-290496510D02*
X165548871Y-290639368D01*
X165548871Y-290639368D02*
X165263157Y-290782225D01*
X165263157Y-290782225D02*
X164691729Y-290782225D01*
X164691729Y-290782225D02*
X164406014Y-290639368D01*
X166834586Y-288782225D02*
X167548872Y-290782225D01*
X168263157Y-288782225D02*
X167548872Y-290782225D01*
X167548872Y-290782225D02*
X167263157Y-291496510D01*
X167263157Y-291496510D02*
X167120300Y-291639368D01*
X167120300Y-291639368D02*
X166834586Y-291782225D01*
X141977442Y-295612057D02*
X141977442Y-292612057D01*
X141977442Y-292612057D02*
X142977442Y-294754914D01*
X142977442Y-294754914D02*
X143977442Y-292612057D01*
X143977442Y-292612057D02*
X143977442Y-295612057D01*
X145834585Y-295612057D02*
X145548870Y-295469200D01*
X145548870Y-295469200D02*
X145406013Y-295326342D01*
X145406013Y-295326342D02*
X145263156Y-295040628D01*
X145263156Y-295040628D02*
X145263156Y-294183485D01*
X145263156Y-294183485D02*
X145406013Y-293897771D01*
X145406013Y-293897771D02*
X145548870Y-293754914D01*
X145548870Y-293754914D02*
X145834585Y-293612057D01*
X145834585Y-293612057D02*
X146263156Y-293612057D01*
X146263156Y-293612057D02*
X146548870Y-293754914D01*
X146548870Y-293754914D02*
X146691728Y-293897771D01*
X146691728Y-293897771D02*
X146834585Y-294183485D01*
X146834585Y-294183485D02*
X146834585Y-295040628D01*
X146834585Y-295040628D02*
X146691728Y-295326342D01*
X146691728Y-295326342D02*
X146548870Y-295469200D01*
X146548870Y-295469200D02*
X146263156Y-295612057D01*
X146263156Y-295612057D02*
X145834585Y-295612057D01*
X148120299Y-295612057D02*
X148120299Y-293612057D01*
X148120299Y-294183485D02*
X148263156Y-293897771D01*
X148263156Y-293897771D02*
X148406014Y-293754914D01*
X148406014Y-293754914D02*
X148691728Y-293612057D01*
X148691728Y-293612057D02*
X148977442Y-293612057D01*
X151120299Y-295469200D02*
X150834585Y-295612057D01*
X150834585Y-295612057D02*
X150263157Y-295612057D01*
X150263157Y-295612057D02*
X149977442Y-295469200D01*
X149977442Y-295469200D02*
X149834585Y-295183485D01*
X149834585Y-295183485D02*
X149834585Y-294040628D01*
X149834585Y-294040628D02*
X149977442Y-293754914D01*
X149977442Y-293754914D02*
X150263157Y-293612057D01*
X150263157Y-293612057D02*
X150834585Y-293612057D01*
X150834585Y-293612057D02*
X151120299Y-293754914D01*
X151120299Y-293754914D02*
X151263157Y-294040628D01*
X151263157Y-294040628D02*
X151263157Y-294326342D01*
X151263157Y-294326342D02*
X149834585Y-294612057D01*
X156120300Y-295612057D02*
X156120300Y-294040628D01*
X156120300Y-294040628D02*
X155977442Y-293754914D01*
X155977442Y-293754914D02*
X155691728Y-293612057D01*
X155691728Y-293612057D02*
X155120300Y-293612057D01*
X155120300Y-293612057D02*
X154834585Y-293754914D01*
X156120300Y-295469200D02*
X155834585Y-295612057D01*
X155834585Y-295612057D02*
X155120300Y-295612057D01*
X155120300Y-295612057D02*
X154834585Y-295469200D01*
X154834585Y-295469200D02*
X154691728Y-295183485D01*
X154691728Y-295183485D02*
X154691728Y-294897771D01*
X154691728Y-294897771D02*
X154834585Y-294612057D01*
X154834585Y-294612057D02*
X155120300Y-294469200D01*
X155120300Y-294469200D02*
X155834585Y-294469200D01*
X155834585Y-294469200D02*
X156120300Y-294326342D01*
X157120300Y-293612057D02*
X158263157Y-293612057D01*
X157548871Y-292612057D02*
X157548871Y-295183485D01*
X157548871Y-295183485D02*
X157691728Y-295469200D01*
X157691728Y-295469200D02*
X157977443Y-295612057D01*
X157977443Y-295612057D02*
X158263157Y-295612057D01*
X163388157Y-295612057D02*
X163120299Y-295469200D01*
X163120299Y-295469200D02*
X162995299Y-295326342D01*
X162995299Y-295326342D02*
X162888157Y-295040628D01*
X162888157Y-295040628D02*
X162995299Y-294183485D01*
X162995299Y-294183485D02*
X163173871Y-293897771D01*
X163173871Y-293897771D02*
X163334585Y-293754914D01*
X163334585Y-293754914D02*
X163638157Y-293612057D01*
X163638157Y-293612057D02*
X164066728Y-293612057D01*
X164066728Y-293612057D02*
X164334585Y-293754914D01*
X164334585Y-293754914D02*
X164459585Y-293897771D01*
X164459585Y-293897771D02*
X164566728Y-294183485D01*
X164566728Y-294183485D02*
X164459585Y-295040628D01*
X164459585Y-295040628D02*
X164281014Y-295326342D01*
X164281014Y-295326342D02*
X164120299Y-295469200D01*
X164120299Y-295469200D02*
X163816728Y-295612057D01*
X163816728Y-295612057D02*
X163388157Y-295612057D01*
X165923871Y-293612057D02*
X165548871Y-296612057D01*
X165906014Y-293754914D02*
X166209585Y-293612057D01*
X166209585Y-293612057D02*
X166781014Y-293612057D01*
X166781014Y-293612057D02*
X167048871Y-293754914D01*
X167048871Y-293754914D02*
X167173871Y-293897771D01*
X167173871Y-293897771D02*
X167281014Y-294183485D01*
X167281014Y-294183485D02*
X167173871Y-295040628D01*
X167173871Y-295040628D02*
X166995300Y-295326342D01*
X166995300Y-295326342D02*
X166834585Y-295469200D01*
X166834585Y-295469200D02*
X166531014Y-295612057D01*
X166531014Y-295612057D02*
X165959585Y-295612057D01*
X165959585Y-295612057D02*
X165691728Y-295469200D01*
X169548871Y-295469200D02*
X169245300Y-295612057D01*
X169245300Y-295612057D02*
X168673871Y-295612057D01*
X168673871Y-295612057D02*
X168406014Y-295469200D01*
X168406014Y-295469200D02*
X168298871Y-295183485D01*
X168298871Y-295183485D02*
X168441729Y-294040628D01*
X168441729Y-294040628D02*
X168620300Y-293754914D01*
X168620300Y-293754914D02*
X168923871Y-293612057D01*
X168923871Y-293612057D02*
X169495300Y-293612057D01*
X169495300Y-293612057D02*
X169763157Y-293754914D01*
X169763157Y-293754914D02*
X169870300Y-294040628D01*
X169870300Y-294040628D02*
X169834586Y-294326342D01*
X169834586Y-294326342D02*
X168370300Y-294612057D01*
X171209586Y-293612057D02*
X170959586Y-295612057D01*
X171173872Y-293897771D02*
X171334586Y-293754914D01*
X171334586Y-293754914D02*
X171638158Y-293612057D01*
X171638158Y-293612057D02*
X172066729Y-293612057D01*
X172066729Y-293612057D02*
X172334586Y-293754914D01*
X172334586Y-293754914D02*
X172441729Y-294040628D01*
X172441729Y-294040628D02*
X172245300Y-295612057D01*
X173673872Y-295612057D02*
X174048872Y-292612057D01*
X173906015Y-293754914D02*
X174209586Y-293612057D01*
X174209586Y-293612057D02*
X174781015Y-293612057D01*
X174781015Y-293612057D02*
X175048872Y-293754914D01*
X175048872Y-293754914D02*
X175173872Y-293897771D01*
X175173872Y-293897771D02*
X175281015Y-294183485D01*
X175281015Y-294183485D02*
X175173872Y-295040628D01*
X175173872Y-295040628D02*
X174995301Y-295326342D01*
X174995301Y-295326342D02*
X174834586Y-295469200D01*
X174834586Y-295469200D02*
X174531015Y-295612057D01*
X174531015Y-295612057D02*
X173959586Y-295612057D01*
X173959586Y-295612057D02*
X173691729Y-295469200D01*
X177673872Y-295612057D02*
X177870301Y-294040628D01*
X177870301Y-294040628D02*
X177763158Y-293754914D01*
X177763158Y-293754914D02*
X177495301Y-293612057D01*
X177495301Y-293612057D02*
X176923872Y-293612057D01*
X176923872Y-293612057D02*
X176620301Y-293754914D01*
X177691730Y-295469200D02*
X177388158Y-295612057D01*
X177388158Y-295612057D02*
X176673872Y-295612057D01*
X176673872Y-295612057D02*
X176406015Y-295469200D01*
X176406015Y-295469200D02*
X176298872Y-295183485D01*
X176298872Y-295183485D02*
X176334587Y-294897771D01*
X176334587Y-294897771D02*
X176513158Y-294612057D01*
X176513158Y-294612057D02*
X176816730Y-294469200D01*
X176816730Y-294469200D02*
X177531015Y-294469200D01*
X177531015Y-294469200D02*
X177834587Y-294326342D01*
X178923873Y-293612057D02*
X180066730Y-293612057D01*
X179477444Y-292612057D02*
X179156016Y-295183485D01*
X179156016Y-295183485D02*
X179263158Y-295469200D01*
X179263158Y-295469200D02*
X179531016Y-295612057D01*
X179531016Y-295612057D02*
X179816730Y-295612057D01*
X180638159Y-293612057D02*
X181781016Y-293612057D01*
X181191730Y-292612057D02*
X180870302Y-295183485D01*
X180870302Y-295183485D02*
X180977444Y-295469200D01*
X180977444Y-295469200D02*
X181245302Y-295612057D01*
X181245302Y-295612057D02*
X181531016Y-295612057D01*
X182566730Y-295326342D02*
X182691730Y-295469200D01*
X182691730Y-295469200D02*
X182531016Y-295612057D01*
X182531016Y-295612057D02*
X182406016Y-295469200D01*
X182406016Y-295469200D02*
X182566730Y-295326342D01*
X182566730Y-295326342D02*
X182531016Y-295612057D01*
X185245301Y-295612057D02*
X185620301Y-292612057D01*
X185263159Y-295469200D02*
X184959587Y-295612057D01*
X184959587Y-295612057D02*
X184388159Y-295612057D01*
X184388159Y-295612057D02*
X184120301Y-295469200D01*
X184120301Y-295469200D02*
X183995301Y-295326342D01*
X183995301Y-295326342D02*
X183888159Y-295040628D01*
X183888159Y-295040628D02*
X183995301Y-294183485D01*
X183995301Y-294183485D02*
X184173873Y-293897771D01*
X184173873Y-293897771D02*
X184334587Y-293754914D01*
X184334587Y-293754914D02*
X184638159Y-293612057D01*
X184638159Y-293612057D02*
X185209587Y-293612057D01*
X185209587Y-293612057D02*
X185477444Y-293754914D01*
X187834587Y-295469200D02*
X187531016Y-295612057D01*
X187531016Y-295612057D02*
X186959587Y-295612057D01*
X186959587Y-295612057D02*
X186691730Y-295469200D01*
X186691730Y-295469200D02*
X186584587Y-295183485D01*
X186584587Y-295183485D02*
X186727445Y-294040628D01*
X186727445Y-294040628D02*
X186906016Y-293754914D01*
X186906016Y-293754914D02*
X187209587Y-293612057D01*
X187209587Y-293612057D02*
X187781016Y-293612057D01*
X187781016Y-293612057D02*
X188048873Y-293754914D01*
X188048873Y-293754914D02*
X188156016Y-294040628D01*
X188156016Y-294040628D02*
X188120302Y-294326342D01*
X188120302Y-294326342D02*
X186656016Y-294612057D01*
X189209588Y-293612057D02*
X189673874Y-295612057D01*
X189673874Y-295612057D02*
X190638159Y-293612057D01*
X360906014Y-284112057D02*
X360620299Y-283969200D01*
X360620299Y-283969200D02*
X360477442Y-283683485D01*
X360477442Y-283683485D02*
X360477442Y-281112057D01*
X362477443Y-284112057D02*
X362191728Y-283969200D01*
X362191728Y-283969200D02*
X362048871Y-283826342D01*
X362048871Y-283826342D02*
X361906014Y-283540628D01*
X361906014Y-283540628D02*
X361906014Y-282683485D01*
X361906014Y-282683485D02*
X362048871Y-282397771D01*
X362048871Y-282397771D02*
X362191728Y-282254914D01*
X362191728Y-282254914D02*
X362477443Y-282112057D01*
X362477443Y-282112057D02*
X362906014Y-282112057D01*
X362906014Y-282112057D02*
X363191728Y-282254914D01*
X363191728Y-282254914D02*
X363334586Y-282397771D01*
X363334586Y-282397771D02*
X363477443Y-282683485D01*
X363477443Y-282683485D02*
X363477443Y-283540628D01*
X363477443Y-283540628D02*
X363334586Y-283826342D01*
X363334586Y-283826342D02*
X363191728Y-283969200D01*
X363191728Y-283969200D02*
X362906014Y-284112057D01*
X362906014Y-284112057D02*
X362477443Y-284112057D01*
X366048872Y-284112057D02*
X366048872Y-282540628D01*
X366048872Y-282540628D02*
X365906014Y-282254914D01*
X365906014Y-282254914D02*
X365620300Y-282112057D01*
X365620300Y-282112057D02*
X365048872Y-282112057D01*
X365048872Y-282112057D02*
X364763157Y-282254914D01*
X366048872Y-283969200D02*
X365763157Y-284112057D01*
X365763157Y-284112057D02*
X365048872Y-284112057D01*
X365048872Y-284112057D02*
X364763157Y-283969200D01*
X364763157Y-283969200D02*
X364620300Y-283683485D01*
X364620300Y-283683485D02*
X364620300Y-283397771D01*
X364620300Y-283397771D02*
X364763157Y-283112057D01*
X364763157Y-283112057D02*
X365048872Y-282969200D01*
X365048872Y-282969200D02*
X365763157Y-282969200D01*
X365763157Y-282969200D02*
X366048872Y-282826342D01*
X368763158Y-284112057D02*
X368763158Y-281112057D01*
X368763158Y-283969200D02*
X368477443Y-284112057D01*
X368477443Y-284112057D02*
X367906015Y-284112057D01*
X367906015Y-284112057D02*
X367620300Y-283969200D01*
X367620300Y-283969200D02*
X367477443Y-283826342D01*
X367477443Y-283826342D02*
X367334586Y-283540628D01*
X367334586Y-283540628D02*
X367334586Y-282683485D01*
X367334586Y-282683485D02*
X367477443Y-282397771D01*
X367477443Y-282397771D02*
X367620300Y-282254914D01*
X367620300Y-282254914D02*
X367906015Y-282112057D01*
X367906015Y-282112057D02*
X368477443Y-282112057D01*
X368477443Y-282112057D02*
X368763158Y-282254914D01*
X373763158Y-284112057D02*
X373763158Y-282540628D01*
X373763158Y-282540628D02*
X373620300Y-282254914D01*
X373620300Y-282254914D02*
X373334586Y-282112057D01*
X373334586Y-282112057D02*
X372763158Y-282112057D01*
X372763158Y-282112057D02*
X372477443Y-282254914D01*
X373763158Y-283969200D02*
X373477443Y-284112057D01*
X373477443Y-284112057D02*
X372763158Y-284112057D01*
X372763158Y-284112057D02*
X372477443Y-283969200D01*
X372477443Y-283969200D02*
X372334586Y-283683485D01*
X372334586Y-283683485D02*
X372334586Y-283397771D01*
X372334586Y-283397771D02*
X372477443Y-283112057D01*
X372477443Y-283112057D02*
X372763158Y-282969200D01*
X372763158Y-282969200D02*
X373477443Y-282969200D01*
X373477443Y-282969200D02*
X373763158Y-282826342D01*
X376477444Y-283969200D02*
X376191729Y-284112057D01*
X376191729Y-284112057D02*
X375620301Y-284112057D01*
X375620301Y-284112057D02*
X375334586Y-283969200D01*
X375334586Y-283969200D02*
X375191729Y-283826342D01*
X375191729Y-283826342D02*
X375048872Y-283540628D01*
X375048872Y-283540628D02*
X375048872Y-282683485D01*
X375048872Y-282683485D02*
X375191729Y-282397771D01*
X375191729Y-282397771D02*
X375334586Y-282254914D01*
X375334586Y-282254914D02*
X375620301Y-282112057D01*
X375620301Y-282112057D02*
X376191729Y-282112057D01*
X376191729Y-282112057D02*
X376477444Y-282254914D01*
X377334587Y-282112057D02*
X378477444Y-282112057D01*
X377763158Y-281112057D02*
X377763158Y-283683485D01*
X377763158Y-283683485D02*
X377906015Y-283969200D01*
X377906015Y-283969200D02*
X378191730Y-284112057D01*
X378191730Y-284112057D02*
X378477444Y-284112057D01*
X379477444Y-284112057D02*
X379477444Y-282112057D01*
X379477444Y-281112057D02*
X379334587Y-281254914D01*
X379334587Y-281254914D02*
X379477444Y-281397771D01*
X379477444Y-281397771D02*
X379620301Y-281254914D01*
X379620301Y-281254914D02*
X379477444Y-281112057D01*
X379477444Y-281112057D02*
X379477444Y-281397771D01*
X380620301Y-282112057D02*
X381334587Y-284112057D01*
X381334587Y-284112057D02*
X382048872Y-282112057D01*
X384334586Y-283969200D02*
X384048872Y-284112057D01*
X384048872Y-284112057D02*
X383477444Y-284112057D01*
X383477444Y-284112057D02*
X383191729Y-283969200D01*
X383191729Y-283969200D02*
X383048872Y-283683485D01*
X383048872Y-283683485D02*
X383048872Y-282540628D01*
X383048872Y-282540628D02*
X383191729Y-282254914D01*
X383191729Y-282254914D02*
X383477444Y-282112057D01*
X383477444Y-282112057D02*
X384048872Y-282112057D01*
X384048872Y-282112057D02*
X384334586Y-282254914D01*
X384334586Y-282254914D02*
X384477444Y-282540628D01*
X384477444Y-282540628D02*
X384477444Y-282826342D01*
X384477444Y-282826342D02*
X383048872Y-283112057D01*
X361763157Y-289969200D02*
X361477442Y-290112057D01*
X361477442Y-290112057D02*
X360906014Y-290112057D01*
X360906014Y-290112057D02*
X360620299Y-289969200D01*
X360620299Y-289969200D02*
X360477442Y-289826342D01*
X360477442Y-289826342D02*
X360334585Y-289540628D01*
X360334585Y-289540628D02*
X360334585Y-288683485D01*
X360334585Y-288683485D02*
X360477442Y-288397771D01*
X360477442Y-288397771D02*
X360620299Y-288254914D01*
X360620299Y-288254914D02*
X360906014Y-288112057D01*
X360906014Y-288112057D02*
X361477442Y-288112057D01*
X361477442Y-288112057D02*
X361763157Y-288254914D01*
X363048871Y-290112057D02*
X363048871Y-287112057D01*
X364334586Y-290112057D02*
X364334586Y-288540628D01*
X364334586Y-288540628D02*
X364191728Y-288254914D01*
X364191728Y-288254914D02*
X363906014Y-288112057D01*
X363906014Y-288112057D02*
X363477443Y-288112057D01*
X363477443Y-288112057D02*
X363191728Y-288254914D01*
X363191728Y-288254914D02*
X363048871Y-288397771D01*
X367048872Y-290112057D02*
X367048872Y-288540628D01*
X367048872Y-288540628D02*
X366906014Y-288254914D01*
X366906014Y-288254914D02*
X366620300Y-288112057D01*
X366620300Y-288112057D02*
X366048872Y-288112057D01*
X366048872Y-288112057D02*
X365763157Y-288254914D01*
X367048872Y-289969200D02*
X366763157Y-290112057D01*
X366763157Y-290112057D02*
X366048872Y-290112057D01*
X366048872Y-290112057D02*
X365763157Y-289969200D01*
X365763157Y-289969200D02*
X365620300Y-289683485D01*
X365620300Y-289683485D02*
X365620300Y-289397771D01*
X365620300Y-289397771D02*
X365763157Y-289112057D01*
X365763157Y-289112057D02*
X366048872Y-288969200D01*
X366048872Y-288969200D02*
X366763157Y-288969200D01*
X366763157Y-288969200D02*
X367048872Y-288826342D01*
X368477443Y-290112057D02*
X368477443Y-288112057D01*
X368477443Y-288683485D02*
X368620300Y-288397771D01*
X368620300Y-288397771D02*
X368763158Y-288254914D01*
X368763158Y-288254914D02*
X369048872Y-288112057D01*
X369048872Y-288112057D02*
X369334586Y-288112057D01*
X371620301Y-288112057D02*
X371620301Y-290540628D01*
X371620301Y-290540628D02*
X371477443Y-290826342D01*
X371477443Y-290826342D02*
X371334586Y-290969200D01*
X371334586Y-290969200D02*
X371048872Y-291112057D01*
X371048872Y-291112057D02*
X370620301Y-291112057D01*
X370620301Y-291112057D02*
X370334586Y-290969200D01*
X371620301Y-289969200D02*
X371334586Y-290112057D01*
X371334586Y-290112057D02*
X370763158Y-290112057D01*
X370763158Y-290112057D02*
X370477443Y-289969200D01*
X370477443Y-289969200D02*
X370334586Y-289826342D01*
X370334586Y-289826342D02*
X370191729Y-289540628D01*
X370191729Y-289540628D02*
X370191729Y-288683485D01*
X370191729Y-288683485D02*
X370334586Y-288397771D01*
X370334586Y-288397771D02*
X370477443Y-288254914D01*
X370477443Y-288254914D02*
X370763158Y-288112057D01*
X370763158Y-288112057D02*
X371334586Y-288112057D01*
X371334586Y-288112057D02*
X371620301Y-288254914D01*
X374191729Y-289969200D02*
X373906015Y-290112057D01*
X373906015Y-290112057D02*
X373334587Y-290112057D01*
X373334587Y-290112057D02*
X373048872Y-289969200D01*
X373048872Y-289969200D02*
X372906015Y-289683485D01*
X372906015Y-289683485D02*
X372906015Y-288540628D01*
X372906015Y-288540628D02*
X373048872Y-288254914D01*
X373048872Y-288254914D02*
X373334587Y-288112057D01*
X373334587Y-288112057D02*
X373906015Y-288112057D01*
X373906015Y-288112057D02*
X374191729Y-288254914D01*
X374191729Y-288254914D02*
X374334587Y-288540628D01*
X374334587Y-288540628D02*
X374334587Y-288826342D01*
X374334587Y-288826342D02*
X372906015Y-289112057D01*
X375620301Y-290112057D02*
X375620301Y-288112057D01*
X375620301Y-288683485D02*
X375763158Y-288397771D01*
X375763158Y-288397771D02*
X375906016Y-288254914D01*
X375906016Y-288254914D02*
X376191730Y-288112057D01*
X376191730Y-288112057D02*
X376477444Y-288112057D01*
X379763158Y-288112057D02*
X379763158Y-291112057D01*
X379763158Y-288254914D02*
X380048873Y-288112057D01*
X380048873Y-288112057D02*
X380620301Y-288112057D01*
X380620301Y-288112057D02*
X380906015Y-288254914D01*
X380906015Y-288254914D02*
X381048873Y-288397771D01*
X381048873Y-288397771D02*
X381191730Y-288683485D01*
X381191730Y-288683485D02*
X381191730Y-289540628D01*
X381191730Y-289540628D02*
X381048873Y-289826342D01*
X381048873Y-289826342D02*
X380906015Y-289969200D01*
X380906015Y-289969200D02*
X380620301Y-290112057D01*
X380620301Y-290112057D02*
X380048873Y-290112057D01*
X380048873Y-290112057D02*
X379763158Y-289969200D01*
X382477444Y-290112057D02*
X382477444Y-288112057D01*
X382477444Y-288683485D02*
X382620301Y-288397771D01*
X382620301Y-288397771D02*
X382763159Y-288254914D01*
X382763159Y-288254914D02*
X383048873Y-288112057D01*
X383048873Y-288112057D02*
X383334587Y-288112057D01*
X385477444Y-289969200D02*
X385191730Y-290112057D01*
X385191730Y-290112057D02*
X384620302Y-290112057D01*
X384620302Y-290112057D02*
X384334587Y-289969200D01*
X384334587Y-289969200D02*
X384191730Y-289683485D01*
X384191730Y-289683485D02*
X384191730Y-288540628D01*
X384191730Y-288540628D02*
X384334587Y-288254914D01*
X384334587Y-288254914D02*
X384620302Y-288112057D01*
X384620302Y-288112057D02*
X385191730Y-288112057D01*
X385191730Y-288112057D02*
X385477444Y-288254914D01*
X385477444Y-288254914D02*
X385620302Y-288540628D01*
X385620302Y-288540628D02*
X385620302Y-288826342D01*
X385620302Y-288826342D02*
X384191730Y-289112057D01*
X386763159Y-289969200D02*
X387048873Y-290112057D01*
X387048873Y-290112057D02*
X387620302Y-290112057D01*
X387620302Y-290112057D02*
X387906016Y-289969200D01*
X387906016Y-289969200D02*
X388048873Y-289683485D01*
X388048873Y-289683485D02*
X388048873Y-289540628D01*
X388048873Y-289540628D02*
X387906016Y-289254914D01*
X387906016Y-289254914D02*
X387620302Y-289112057D01*
X387620302Y-289112057D02*
X387191731Y-289112057D01*
X387191731Y-289112057D02*
X386906016Y-288969200D01*
X386906016Y-288969200D02*
X386763159Y-288683485D01*
X386763159Y-288683485D02*
X386763159Y-288540628D01*
X386763159Y-288540628D02*
X386906016Y-288254914D01*
X386906016Y-288254914D02*
X387191731Y-288112057D01*
X387191731Y-288112057D02*
X387620302Y-288112057D01*
X387620302Y-288112057D02*
X387906016Y-288254914D01*
X390477444Y-289969200D02*
X390191730Y-290112057D01*
X390191730Y-290112057D02*
X389620302Y-290112057D01*
X389620302Y-290112057D02*
X389334587Y-289969200D01*
X389334587Y-289969200D02*
X389191730Y-289683485D01*
X389191730Y-289683485D02*
X389191730Y-288540628D01*
X389191730Y-288540628D02*
X389334587Y-288254914D01*
X389334587Y-288254914D02*
X389620302Y-288112057D01*
X389620302Y-288112057D02*
X390191730Y-288112057D01*
X390191730Y-288112057D02*
X390477444Y-288254914D01*
X390477444Y-288254914D02*
X390620302Y-288540628D01*
X390620302Y-288540628D02*
X390620302Y-288826342D01*
X390620302Y-288826342D02*
X389191730Y-289112057D01*
X391906016Y-288112057D02*
X391906016Y-290112057D01*
X391906016Y-288397771D02*
X392048873Y-288254914D01*
X392048873Y-288254914D02*
X392334588Y-288112057D01*
X392334588Y-288112057D02*
X392763159Y-288112057D01*
X392763159Y-288112057D02*
X393048873Y-288254914D01*
X393048873Y-288254914D02*
X393191731Y-288540628D01*
X393191731Y-288540628D02*
X393191731Y-290112057D01*
X394191731Y-288112057D02*
X395334588Y-288112057D01*
X394620302Y-287112057D02*
X394620302Y-289683485D01*
X394620302Y-289683485D02*
X394763159Y-289969200D01*
X394763159Y-289969200D02*
X395048874Y-290112057D01*
X395048874Y-290112057D02*
X395334588Y-290112057D01*
D13*
X142240600Y-280468876D02*
X143002505Y-280468876D01*
X143002505Y-280468876D02*
X143383457Y-280659352D01*
X143383457Y-280659352D02*
X143764410Y-281040304D01*
X143764410Y-281040304D02*
X143954886Y-281802209D01*
X143954886Y-281802209D02*
X143954886Y-283135542D01*
X143954886Y-283135542D02*
X143764410Y-283897447D01*
X143764410Y-283897447D02*
X143383457Y-284278400D01*
X143383457Y-284278400D02*
X143002505Y-284468876D01*
X143002505Y-284468876D02*
X142240600Y-284468876D01*
X142240600Y-284468876D02*
X141859648Y-284278400D01*
X141859648Y-284278400D02*
X141478695Y-283897447D01*
X141478695Y-283897447D02*
X141288219Y-283135542D01*
X141288219Y-283135542D02*
X141288219Y-281802209D01*
X141288219Y-281802209D02*
X141478695Y-281040304D01*
X141478695Y-281040304D02*
X141859648Y-280659352D01*
X141859648Y-280659352D02*
X142240600Y-280468876D01*
X145669171Y-281802209D02*
X145669171Y-285802209D01*
X145669171Y-281992685D02*
X146050124Y-281802209D01*
X146050124Y-281802209D02*
X146812029Y-281802209D01*
X146812029Y-281802209D02*
X147192981Y-281992685D01*
X147192981Y-281992685D02*
X147383457Y-282183161D01*
X147383457Y-282183161D02*
X147573933Y-282564114D01*
X147573933Y-282564114D02*
X147573933Y-283706971D01*
X147573933Y-283706971D02*
X147383457Y-284087923D01*
X147383457Y-284087923D02*
X147192981Y-284278400D01*
X147192981Y-284278400D02*
X146812029Y-284468876D01*
X146812029Y-284468876D02*
X146050124Y-284468876D01*
X146050124Y-284468876D02*
X145669171Y-284278400D01*
X150812029Y-284278400D02*
X150431077Y-284468876D01*
X150431077Y-284468876D02*
X149669172Y-284468876D01*
X149669172Y-284468876D02*
X149288219Y-284278400D01*
X149288219Y-284278400D02*
X149097743Y-283897447D01*
X149097743Y-283897447D02*
X149097743Y-282373638D01*
X149097743Y-282373638D02*
X149288219Y-281992685D01*
X149288219Y-281992685D02*
X149669172Y-281802209D01*
X149669172Y-281802209D02*
X150431077Y-281802209D01*
X150431077Y-281802209D02*
X150812029Y-281992685D01*
X150812029Y-281992685D02*
X151002505Y-282373638D01*
X151002505Y-282373638D02*
X151002505Y-282754590D01*
X151002505Y-282754590D02*
X149097743Y-283135542D01*
X152716790Y-281802209D02*
X152716790Y-284468876D01*
X152716790Y-282183161D02*
X152907267Y-281992685D01*
X152907267Y-281992685D02*
X153288219Y-281802209D01*
X153288219Y-281802209D02*
X153859648Y-281802209D01*
X153859648Y-281802209D02*
X154240600Y-281992685D01*
X154240600Y-281992685D02*
X154431076Y-282373638D01*
X154431076Y-282373638D02*
X154431076Y-284468876D01*
X157669172Y-282373638D02*
X158240600Y-282564114D01*
X158240600Y-282564114D02*
X158431077Y-282754590D01*
X158431077Y-282754590D02*
X158621553Y-283135542D01*
X158621553Y-283135542D02*
X158621553Y-283706971D01*
X158621553Y-283706971D02*
X158431077Y-284087923D01*
X158431077Y-284087923D02*
X158240600Y-284278400D01*
X158240600Y-284278400D02*
X157859648Y-284468876D01*
X157859648Y-284468876D02*
X156335838Y-284468876D01*
X156335838Y-284468876D02*
X156335838Y-280468876D01*
X156335838Y-280468876D02*
X157669172Y-280468876D01*
X157669172Y-280468876D02*
X158050124Y-280659352D01*
X158050124Y-280659352D02*
X158240600Y-280849828D01*
X158240600Y-280849828D02*
X158431077Y-281230780D01*
X158431077Y-281230780D02*
X158431077Y-281611733D01*
X158431077Y-281611733D02*
X158240600Y-281992685D01*
X158240600Y-281992685D02*
X158050124Y-282183161D01*
X158050124Y-282183161D02*
X157669172Y-282373638D01*
X157669172Y-282373638D02*
X156335838Y-282373638D01*
X160335838Y-284468876D02*
X160335838Y-280468876D01*
X160335838Y-280468876D02*
X161669172Y-283326019D01*
X161669172Y-283326019D02*
X163002505Y-280468876D01*
X163002505Y-280468876D02*
X163002505Y-284468876D01*
X164716791Y-284278400D02*
X165288220Y-284468876D01*
X165288220Y-284468876D02*
X166240601Y-284468876D01*
X166240601Y-284468876D02*
X166621553Y-284278400D01*
X166621553Y-284278400D02*
X166812029Y-284087923D01*
X166812029Y-284087923D02*
X167002506Y-283706971D01*
X167002506Y-283706971D02*
X167002506Y-283326019D01*
X167002506Y-283326019D02*
X166812029Y-282945066D01*
X166812029Y-282945066D02*
X166621553Y-282754590D01*
X166621553Y-282754590D02*
X166240601Y-282564114D01*
X166240601Y-282564114D02*
X165478696Y-282373638D01*
X165478696Y-282373638D02*
X165097744Y-282183161D01*
X165097744Y-282183161D02*
X164907267Y-281992685D01*
X164907267Y-281992685D02*
X164716791Y-281611733D01*
X164716791Y-281611733D02*
X164716791Y-281230780D01*
X164716791Y-281230780D02*
X164907267Y-280849828D01*
X164907267Y-280849828D02*
X165097744Y-280659352D01*
X165097744Y-280659352D02*
X165478696Y-280468876D01*
X165478696Y-280468876D02*
X166431077Y-280468876D01*
X166431077Y-280468876D02*
X167002506Y-280659352D01*
X173478696Y-280468876D02*
X172716791Y-280468876D01*
X172716791Y-280468876D02*
X172335839Y-280659352D01*
X172335839Y-280659352D02*
X172145363Y-280849828D01*
X172145363Y-280849828D02*
X171764410Y-281421257D01*
X171764410Y-281421257D02*
X171573934Y-282183161D01*
X171573934Y-282183161D02*
X171573934Y-283706971D01*
X171573934Y-283706971D02*
X171764410Y-284087923D01*
X171764410Y-284087923D02*
X171954887Y-284278400D01*
X171954887Y-284278400D02*
X172335839Y-284468876D01*
X172335839Y-284468876D02*
X173097744Y-284468876D01*
X173097744Y-284468876D02*
X173478696Y-284278400D01*
X173478696Y-284278400D02*
X173669172Y-284087923D01*
X173669172Y-284087923D02*
X173859649Y-283706971D01*
X173859649Y-283706971D02*
X173859649Y-282754590D01*
X173859649Y-282754590D02*
X173669172Y-282373638D01*
X173669172Y-282373638D02*
X173478696Y-282183161D01*
X173478696Y-282183161D02*
X173097744Y-281992685D01*
X173097744Y-281992685D02*
X172335839Y-281992685D01*
X172335839Y-281992685D02*
X171954887Y-282183161D01*
X171954887Y-282183161D02*
X171764410Y-282373638D01*
X171764410Y-282373638D02*
X171573934Y-282754590D01*
X176335839Y-280468876D02*
X176716792Y-280468876D01*
X176716792Y-280468876D02*
X177097744Y-280659352D01*
X177097744Y-280659352D02*
X177288220Y-280849828D01*
X177288220Y-280849828D02*
X177478696Y-281230780D01*
X177478696Y-281230780D02*
X177669173Y-281992685D01*
X177669173Y-281992685D02*
X177669173Y-282945066D01*
X177669173Y-282945066D02*
X177478696Y-283706971D01*
X177478696Y-283706971D02*
X177288220Y-284087923D01*
X177288220Y-284087923D02*
X177097744Y-284278400D01*
X177097744Y-284278400D02*
X176716792Y-284468876D01*
X176716792Y-284468876D02*
X176335839Y-284468876D01*
X176335839Y-284468876D02*
X175954887Y-284278400D01*
X175954887Y-284278400D02*
X175764411Y-284087923D01*
X175764411Y-284087923D02*
X175573934Y-283706971D01*
X175573934Y-283706971D02*
X175383458Y-282945066D01*
X175383458Y-282945066D02*
X175383458Y-281992685D01*
X175383458Y-281992685D02*
X175573934Y-281230780D01*
X175573934Y-281230780D02*
X175764411Y-280849828D01*
X175764411Y-280849828D02*
X175954887Y-280659352D01*
X175954887Y-280659352D02*
X176335839Y-280468876D01*
X180145363Y-280468876D02*
X180526316Y-280468876D01*
X180526316Y-280468876D02*
X180907268Y-280659352D01*
X180907268Y-280659352D02*
X181097744Y-280849828D01*
X181097744Y-280849828D02*
X181288220Y-281230780D01*
X181288220Y-281230780D02*
X181478697Y-281992685D01*
X181478697Y-281992685D02*
X181478697Y-282945066D01*
X181478697Y-282945066D02*
X181288220Y-283706971D01*
X181288220Y-283706971D02*
X181097744Y-284087923D01*
X181097744Y-284087923D02*
X180907268Y-284278400D01*
X180907268Y-284278400D02*
X180526316Y-284468876D01*
X180526316Y-284468876D02*
X180145363Y-284468876D01*
X180145363Y-284468876D02*
X179764411Y-284278400D01*
X179764411Y-284278400D02*
X179573935Y-284087923D01*
X179573935Y-284087923D02*
X179383458Y-283706971D01*
X179383458Y-283706971D02*
X179192982Y-282945066D01*
X179192982Y-282945066D02*
X179192982Y-281992685D01*
X179192982Y-281992685D02*
X179383458Y-281230780D01*
X179383458Y-281230780D02*
X179573935Y-280849828D01*
X179573935Y-280849828D02*
X179764411Y-280659352D01*
X179764411Y-280659352D02*
X180145363Y-280468876D01*
X182812030Y-280468876D02*
X183764411Y-284468876D01*
X183764411Y-284468876D02*
X184526316Y-281611733D01*
X184526316Y-281611733D02*
X185288221Y-284468876D01*
X185288221Y-284468876D02*
X186240602Y-280468876D01*
X193097745Y-284468876D02*
X191764411Y-282564114D01*
X190812030Y-284468876D02*
X190812030Y-280468876D01*
X190812030Y-280468876D02*
X192335840Y-280468876D01*
X192335840Y-280468876D02*
X192716792Y-280659352D01*
X192716792Y-280659352D02*
X192907269Y-280849828D01*
X192907269Y-280849828D02*
X193097745Y-281230780D01*
X193097745Y-281230780D02*
X193097745Y-281802209D01*
X193097745Y-281802209D02*
X192907269Y-282183161D01*
X192907269Y-282183161D02*
X192716792Y-282373638D01*
X192716792Y-282373638D02*
X192335840Y-282564114D01*
X192335840Y-282564114D02*
X190812030Y-282564114D01*
X196335840Y-284278400D02*
X195954888Y-284468876D01*
X195954888Y-284468876D02*
X195192983Y-284468876D01*
X195192983Y-284468876D02*
X194812030Y-284278400D01*
X194812030Y-284278400D02*
X194621554Y-283897447D01*
X194621554Y-283897447D02*
X194621554Y-282373638D01*
X194621554Y-282373638D02*
X194812030Y-281992685D01*
X194812030Y-281992685D02*
X195192983Y-281802209D01*
X195192983Y-281802209D02*
X195954888Y-281802209D01*
X195954888Y-281802209D02*
X196335840Y-281992685D01*
X196335840Y-281992685D02*
X196526316Y-282373638D01*
X196526316Y-282373638D02*
X196526316Y-282754590D01*
X196526316Y-282754590D02*
X194621554Y-283135542D01*
X198050125Y-284278400D02*
X198431078Y-284468876D01*
X198431078Y-284468876D02*
X199192982Y-284468876D01*
X199192982Y-284468876D02*
X199573935Y-284278400D01*
X199573935Y-284278400D02*
X199764411Y-283897447D01*
X199764411Y-283897447D02*
X199764411Y-283706971D01*
X199764411Y-283706971D02*
X199573935Y-283326019D01*
X199573935Y-283326019D02*
X199192982Y-283135542D01*
X199192982Y-283135542D02*
X198621554Y-283135542D01*
X198621554Y-283135542D02*
X198240601Y-282945066D01*
X198240601Y-282945066D02*
X198050125Y-282564114D01*
X198050125Y-282564114D02*
X198050125Y-282373638D01*
X198050125Y-282373638D02*
X198240601Y-281992685D01*
X198240601Y-281992685D02*
X198621554Y-281802209D01*
X198621554Y-281802209D02*
X199192982Y-281802209D01*
X199192982Y-281802209D02*
X199573935Y-281992685D01*
X201478696Y-284468876D02*
X201478696Y-281802209D01*
X201478696Y-280468876D02*
X201288220Y-280659352D01*
X201288220Y-280659352D02*
X201478696Y-280849828D01*
X201478696Y-280849828D02*
X201669173Y-280659352D01*
X201669173Y-280659352D02*
X201478696Y-280468876D01*
X201478696Y-280468876D02*
X201478696Y-280849828D01*
X203192982Y-284278400D02*
X203573935Y-284468876D01*
X203573935Y-284468876D02*
X204335839Y-284468876D01*
X204335839Y-284468876D02*
X204716792Y-284278400D01*
X204716792Y-284278400D02*
X204907268Y-283897447D01*
X204907268Y-283897447D02*
X204907268Y-283706971D01*
X204907268Y-283706971D02*
X204716792Y-283326019D01*
X204716792Y-283326019D02*
X204335839Y-283135542D01*
X204335839Y-283135542D02*
X203764411Y-283135542D01*
X203764411Y-283135542D02*
X203383458Y-282945066D01*
X203383458Y-282945066D02*
X203192982Y-282564114D01*
X203192982Y-282564114D02*
X203192982Y-282373638D01*
X203192982Y-282373638D02*
X203383458Y-281992685D01*
X203383458Y-281992685D02*
X203764411Y-281802209D01*
X203764411Y-281802209D02*
X204335839Y-281802209D01*
X204335839Y-281802209D02*
X204716792Y-281992685D01*
X206050125Y-281802209D02*
X207573934Y-281802209D01*
X206621553Y-280468876D02*
X206621553Y-283897447D01*
X206621553Y-283897447D02*
X206812030Y-284278400D01*
X206812030Y-284278400D02*
X207192982Y-284468876D01*
X207192982Y-284468876D02*
X207573934Y-284468876D01*
X208907267Y-284468876D02*
X208907267Y-281802209D01*
X208907267Y-280468876D02*
X208716791Y-280659352D01*
X208716791Y-280659352D02*
X208907267Y-280849828D01*
X208907267Y-280849828D02*
X209097744Y-280659352D01*
X209097744Y-280659352D02*
X208907267Y-280468876D01*
X208907267Y-280468876D02*
X208907267Y-280849828D01*
X210431077Y-281802209D02*
X211383458Y-284468876D01*
X211383458Y-284468876D02*
X212335839Y-281802209D01*
X215383458Y-284278400D02*
X215002506Y-284468876D01*
X215002506Y-284468876D02*
X214240601Y-284468876D01*
X214240601Y-284468876D02*
X213859648Y-284278400D01*
X213859648Y-284278400D02*
X213669172Y-283897447D01*
X213669172Y-283897447D02*
X213669172Y-282373638D01*
X213669172Y-282373638D02*
X213859648Y-281992685D01*
X213859648Y-281992685D02*
X214240601Y-281802209D01*
X214240601Y-281802209D02*
X215002506Y-281802209D01*
X215002506Y-281802209D02*
X215383458Y-281992685D01*
X215383458Y-281992685D02*
X215573934Y-282373638D01*
X215573934Y-282373638D02*
X215573934Y-282754590D01*
X215573934Y-282754590D02*
X213669172Y-283135542D01*
X222240600Y-284468876D02*
X220335838Y-284468876D01*
X220335838Y-284468876D02*
X220335838Y-280468876D01*
X224145362Y-284468876D02*
X223764410Y-284278400D01*
X223764410Y-284278400D02*
X223573933Y-284087923D01*
X223573933Y-284087923D02*
X223383457Y-283706971D01*
X223383457Y-283706971D02*
X223383457Y-282564114D01*
X223383457Y-282564114D02*
X223573933Y-282183161D01*
X223573933Y-282183161D02*
X223764410Y-281992685D01*
X223764410Y-281992685D02*
X224145362Y-281802209D01*
X224145362Y-281802209D02*
X224716791Y-281802209D01*
X224716791Y-281802209D02*
X225097743Y-281992685D01*
X225097743Y-281992685D02*
X225288219Y-282183161D01*
X225288219Y-282183161D02*
X225478695Y-282564114D01*
X225478695Y-282564114D02*
X225478695Y-283706971D01*
X225478695Y-283706971D02*
X225288219Y-284087923D01*
X225288219Y-284087923D02*
X225097743Y-284278400D01*
X225097743Y-284278400D02*
X224716791Y-284468876D01*
X224716791Y-284468876D02*
X224145362Y-284468876D01*
X228907267Y-284468876D02*
X228907267Y-282373638D01*
X228907267Y-282373638D02*
X228716791Y-281992685D01*
X228716791Y-281992685D02*
X228335839Y-281802209D01*
X228335839Y-281802209D02*
X227573934Y-281802209D01*
X227573934Y-281802209D02*
X227192981Y-281992685D01*
X228907267Y-284278400D02*
X228526315Y-284468876D01*
X228526315Y-284468876D02*
X227573934Y-284468876D01*
X227573934Y-284468876D02*
X227192981Y-284278400D01*
X227192981Y-284278400D02*
X227002505Y-283897447D01*
X227002505Y-283897447D02*
X227002505Y-283516495D01*
X227002505Y-283516495D02*
X227192981Y-283135542D01*
X227192981Y-283135542D02*
X227573934Y-282945066D01*
X227573934Y-282945066D02*
X228526315Y-282945066D01*
X228526315Y-282945066D02*
X228907267Y-282754590D01*
X232526315Y-284468876D02*
X232526315Y-280468876D01*
X232526315Y-284278400D02*
X232145363Y-284468876D01*
X232145363Y-284468876D02*
X231383458Y-284468876D01*
X231383458Y-284468876D02*
X231002506Y-284278400D01*
X231002506Y-284278400D02*
X230812029Y-284087923D01*
X230812029Y-284087923D02*
X230621553Y-283706971D01*
X230621553Y-283706971D02*
X230621553Y-282564114D01*
X230621553Y-282564114D02*
X230812029Y-282183161D01*
X230812029Y-282183161D02*
X231002506Y-281992685D01*
X231002506Y-281992685D02*
X231383458Y-281802209D01*
X231383458Y-281802209D02*
X232145363Y-281802209D01*
X232145363Y-281802209D02*
X232526315Y-281992685D01*
D12*
X213691728Y-290782225D02*
X212691728Y-289353653D01*
X211977442Y-290782225D02*
X211977442Y-287782225D01*
X211977442Y-287782225D02*
X213120299Y-287782225D01*
X213120299Y-287782225D02*
X213406014Y-287925082D01*
X213406014Y-287925082D02*
X213548871Y-288067939D01*
X213548871Y-288067939D02*
X213691728Y-288353653D01*
X213691728Y-288353653D02*
X213691728Y-288782225D01*
X213691728Y-288782225D02*
X213548871Y-289067939D01*
X213548871Y-289067939D02*
X213406014Y-289210796D01*
X213406014Y-289210796D02*
X213120299Y-289353653D01*
X213120299Y-289353653D02*
X211977442Y-289353653D01*
X216120299Y-290639368D02*
X215834585Y-290782225D01*
X215834585Y-290782225D02*
X215263157Y-290782225D01*
X215263157Y-290782225D02*
X214977442Y-290639368D01*
X214977442Y-290639368D02*
X214834585Y-290353653D01*
X214834585Y-290353653D02*
X214834585Y-289210796D01*
X214834585Y-289210796D02*
X214977442Y-288925082D01*
X214977442Y-288925082D02*
X215263157Y-288782225D01*
X215263157Y-288782225D02*
X215834585Y-288782225D01*
X215834585Y-288782225D02*
X216120299Y-288925082D01*
X216120299Y-288925082D02*
X216263157Y-289210796D01*
X216263157Y-289210796D02*
X216263157Y-289496510D01*
X216263157Y-289496510D02*
X214834585Y-289782225D01*
X217263157Y-288782225D02*
X217977443Y-290782225D01*
X217977443Y-290782225D02*
X218691728Y-288782225D01*
X221977442Y-289925082D02*
X223406014Y-289925082D01*
X221691728Y-290782225D02*
X222691728Y-287782225D01*
X222691728Y-287782225D02*
X223691728Y-290782225D01*
X213977442Y-295897771D02*
X213691728Y-295754914D01*
X213691728Y-295754914D02*
X213406014Y-295469200D01*
X213406014Y-295469200D02*
X212977442Y-295040628D01*
X212977442Y-295040628D02*
X212691728Y-294897771D01*
X212691728Y-294897771D02*
X212406014Y-294897771D01*
X212548871Y-295612057D02*
X212263157Y-295469200D01*
X212263157Y-295469200D02*
X211977442Y-295183485D01*
X211977442Y-295183485D02*
X211834585Y-294612057D01*
X211834585Y-294612057D02*
X211834585Y-293612057D01*
X211834585Y-293612057D02*
X211977442Y-293040628D01*
X211977442Y-293040628D02*
X212263157Y-292754914D01*
X212263157Y-292754914D02*
X212548871Y-292612057D01*
X212548871Y-292612057D02*
X213120299Y-292612057D01*
X213120299Y-292612057D02*
X213406014Y-292754914D01*
X213406014Y-292754914D02*
X213691728Y-293040628D01*
X213691728Y-293040628D02*
X213834585Y-293612057D01*
X213834585Y-293612057D02*
X213834585Y-294612057D01*
X213834585Y-294612057D02*
X213691728Y-295183485D01*
X213691728Y-295183485D02*
X213406014Y-295469200D01*
X213406014Y-295469200D02*
X213120299Y-295612057D01*
X213120299Y-295612057D02*
X212548871Y-295612057D01*
X214977442Y-292897771D02*
X215120299Y-292754914D01*
X215120299Y-292754914D02*
X215406014Y-292612057D01*
X215406014Y-292612057D02*
X216120299Y-292612057D01*
X216120299Y-292612057D02*
X216406014Y-292754914D01*
X216406014Y-292754914D02*
X216548871Y-292897771D01*
X216548871Y-292897771D02*
X216691728Y-293183485D01*
X216691728Y-293183485D02*
X216691728Y-293469200D01*
X216691728Y-293469200D02*
X216548871Y-293897771D01*
X216548871Y-293897771D02*
X214834585Y-295612057D01*
X214834585Y-295612057D02*
X216691728Y-295612057D01*
X220120299Y-292469200D02*
X217548871Y-296326342D01*
X220977442Y-292897771D02*
X221120299Y-292754914D01*
X221120299Y-292754914D02*
X221406014Y-292612057D01*
X221406014Y-292612057D02*
X222120299Y-292612057D01*
X222120299Y-292612057D02*
X222406014Y-292754914D01*
X222406014Y-292754914D02*
X222548871Y-292897771D01*
X222548871Y-292897771D02*
X222691728Y-293183485D01*
X222691728Y-293183485D02*
X222691728Y-293469200D01*
X222691728Y-293469200D02*
X222548871Y-293897771D01*
X222548871Y-293897771D02*
X220834585Y-295612057D01*
X220834585Y-295612057D02*
X222691728Y-295612057D01*
X224548871Y-292612057D02*
X224834585Y-292612057D01*
X224834585Y-292612057D02*
X225120299Y-292754914D01*
X225120299Y-292754914D02*
X225263157Y-292897771D01*
X225263157Y-292897771D02*
X225406014Y-293183485D01*
X225406014Y-293183485D02*
X225548871Y-293754914D01*
X225548871Y-293754914D02*
X225548871Y-294469200D01*
X225548871Y-294469200D02*
X225406014Y-295040628D01*
X225406014Y-295040628D02*
X225263157Y-295326342D01*
X225263157Y-295326342D02*
X225120299Y-295469200D01*
X225120299Y-295469200D02*
X224834585Y-295612057D01*
X224834585Y-295612057D02*
X224548871Y-295612057D01*
X224548871Y-295612057D02*
X224263157Y-295469200D01*
X224263157Y-295469200D02*
X224120299Y-295326342D01*
X224120299Y-295326342D02*
X223977442Y-295040628D01*
X223977442Y-295040628D02*
X223834585Y-294469200D01*
X223834585Y-294469200D02*
X223834585Y-293754914D01*
X223834585Y-293754914D02*
X223977442Y-293183485D01*
X223977442Y-293183485D02*
X224120299Y-292897771D01*
X224120299Y-292897771D02*
X224263157Y-292754914D01*
X224263157Y-292754914D02*
X224548871Y-292612057D01*
X226691728Y-292897771D02*
X226834585Y-292754914D01*
X226834585Y-292754914D02*
X227120300Y-292612057D01*
X227120300Y-292612057D02*
X227834585Y-292612057D01*
X227834585Y-292612057D02*
X228120300Y-292754914D01*
X228120300Y-292754914D02*
X228263157Y-292897771D01*
X228263157Y-292897771D02*
X228406014Y-293183485D01*
X228406014Y-293183485D02*
X228406014Y-293469200D01*
X228406014Y-293469200D02*
X228263157Y-293897771D01*
X228263157Y-293897771D02*
X226548871Y-295612057D01*
X226548871Y-295612057D02*
X228406014Y-295612057D01*
X230977443Y-292612057D02*
X230406014Y-292612057D01*
X230406014Y-292612057D02*
X230120300Y-292754914D01*
X230120300Y-292754914D02*
X229977443Y-292897771D01*
X229977443Y-292897771D02*
X229691728Y-293326342D01*
X229691728Y-293326342D02*
X229548871Y-293897771D01*
X229548871Y-293897771D02*
X229548871Y-295040628D01*
X229548871Y-295040628D02*
X229691728Y-295326342D01*
X229691728Y-295326342D02*
X229834585Y-295469200D01*
X229834585Y-295469200D02*
X230120300Y-295612057D01*
X230120300Y-295612057D02*
X230691728Y-295612057D01*
X230691728Y-295612057D02*
X230977443Y-295469200D01*
X230977443Y-295469200D02*
X231120300Y-295326342D01*
X231120300Y-295326342D02*
X231263157Y-295040628D01*
X231263157Y-295040628D02*
X231263157Y-294326342D01*
X231263157Y-294326342D02*
X231120300Y-294040628D01*
X231120300Y-294040628D02*
X230977443Y-293897771D01*
X230977443Y-293897771D02*
X230691728Y-293754914D01*
X230691728Y-293754914D02*
X230120300Y-293754914D01*
X230120300Y-293754914D02*
X229834585Y-293897771D01*
X229834585Y-293897771D02*
X229691728Y-294040628D01*
X229691728Y-294040628D02*
X229548871Y-294326342D01*
X345048871Y-293612057D02*
X346191728Y-293612057D01*
X345477442Y-292612057D02*
X345477442Y-295183485D01*
X345477442Y-295183485D02*
X345620299Y-295469200D01*
X345620299Y-295469200D02*
X345906014Y-295612057D01*
X345906014Y-295612057D02*
X346191728Y-295612057D01*
X347620300Y-295612057D02*
X347334585Y-295469200D01*
X347334585Y-295469200D02*
X347191728Y-295326342D01*
X347191728Y-295326342D02*
X347048871Y-295040628D01*
X347048871Y-295040628D02*
X347048871Y-294183485D01*
X347048871Y-294183485D02*
X347191728Y-293897771D01*
X347191728Y-293897771D02*
X347334585Y-293754914D01*
X347334585Y-293754914D02*
X347620300Y-293612057D01*
X347620300Y-293612057D02*
X348048871Y-293612057D01*
X348048871Y-293612057D02*
X348334585Y-293754914D01*
X348334585Y-293754914D02*
X348477443Y-293897771D01*
X348477443Y-293897771D02*
X348620300Y-294183485D01*
X348620300Y-294183485D02*
X348620300Y-295040628D01*
X348620300Y-295040628D02*
X348477443Y-295326342D01*
X348477443Y-295326342D02*
X348334585Y-295469200D01*
X348334585Y-295469200D02*
X348048871Y-295612057D01*
X348048871Y-295612057D02*
X347620300Y-295612057D01*
X353477443Y-295469200D02*
X353191728Y-295612057D01*
X353191728Y-295612057D02*
X352620300Y-295612057D01*
X352620300Y-295612057D02*
X352334585Y-295469200D01*
X352334585Y-295469200D02*
X352191728Y-295326342D01*
X352191728Y-295326342D02*
X352048871Y-295040628D01*
X352048871Y-295040628D02*
X352048871Y-294183485D01*
X352048871Y-294183485D02*
X352191728Y-293897771D01*
X352191728Y-293897771D02*
X352334585Y-293754914D01*
X352334585Y-293754914D02*
X352620300Y-293612057D01*
X352620300Y-293612057D02*
X353191728Y-293612057D01*
X353191728Y-293612057D02*
X353477443Y-293754914D01*
X354763157Y-295612057D02*
X354763157Y-292612057D01*
X356048872Y-295612057D02*
X356048872Y-294040628D01*
X356048872Y-294040628D02*
X355906014Y-293754914D01*
X355906014Y-293754914D02*
X355620300Y-293612057D01*
X355620300Y-293612057D02*
X355191729Y-293612057D01*
X355191729Y-293612057D02*
X354906014Y-293754914D01*
X354906014Y-293754914D02*
X354763157Y-293897771D01*
X358763158Y-295612057D02*
X358763158Y-294040628D01*
X358763158Y-294040628D02*
X358620300Y-293754914D01*
X358620300Y-293754914D02*
X358334586Y-293612057D01*
X358334586Y-293612057D02*
X357763158Y-293612057D01*
X357763158Y-293612057D02*
X357477443Y-293754914D01*
X358763158Y-295469200D02*
X358477443Y-295612057D01*
X358477443Y-295612057D02*
X357763158Y-295612057D01*
X357763158Y-295612057D02*
X357477443Y-295469200D01*
X357477443Y-295469200D02*
X357334586Y-295183485D01*
X357334586Y-295183485D02*
X357334586Y-294897771D01*
X357334586Y-294897771D02*
X357477443Y-294612057D01*
X357477443Y-294612057D02*
X357763158Y-294469200D01*
X357763158Y-294469200D02*
X358477443Y-294469200D01*
X358477443Y-294469200D02*
X358763158Y-294326342D01*
X360191729Y-295612057D02*
X360191729Y-293612057D01*
X360191729Y-294183485D02*
X360334586Y-293897771D01*
X360334586Y-293897771D02*
X360477444Y-293754914D01*
X360477444Y-293754914D02*
X360763158Y-293612057D01*
X360763158Y-293612057D02*
X361048872Y-293612057D01*
X363334587Y-293612057D02*
X363334587Y-296040628D01*
X363334587Y-296040628D02*
X363191729Y-296326342D01*
X363191729Y-296326342D02*
X363048872Y-296469200D01*
X363048872Y-296469200D02*
X362763158Y-296612057D01*
X362763158Y-296612057D02*
X362334587Y-296612057D01*
X362334587Y-296612057D02*
X362048872Y-296469200D01*
X363334587Y-295469200D02*
X363048872Y-295612057D01*
X363048872Y-295612057D02*
X362477444Y-295612057D01*
X362477444Y-295612057D02*
X362191729Y-295469200D01*
X362191729Y-295469200D02*
X362048872Y-295326342D01*
X362048872Y-295326342D02*
X361906015Y-295040628D01*
X361906015Y-295040628D02*
X361906015Y-294183485D01*
X361906015Y-294183485D02*
X362048872Y-293897771D01*
X362048872Y-293897771D02*
X362191729Y-293754914D01*
X362191729Y-293754914D02*
X362477444Y-293612057D01*
X362477444Y-293612057D02*
X363048872Y-293612057D01*
X363048872Y-293612057D02*
X363334587Y-293754914D01*
X365906015Y-295469200D02*
X365620301Y-295612057D01*
X365620301Y-295612057D02*
X365048873Y-295612057D01*
X365048873Y-295612057D02*
X364763158Y-295469200D01*
X364763158Y-295469200D02*
X364620301Y-295183485D01*
X364620301Y-295183485D02*
X364620301Y-294040628D01*
X364620301Y-294040628D02*
X364763158Y-293754914D01*
X364763158Y-293754914D02*
X365048873Y-293612057D01*
X365048873Y-293612057D02*
X365620301Y-293612057D01*
X365620301Y-293612057D02*
X365906015Y-293754914D01*
X365906015Y-293754914D02*
X366048873Y-294040628D01*
X366048873Y-294040628D02*
X366048873Y-294326342D01*
X366048873Y-294326342D02*
X364620301Y-294612057D01*
X367334587Y-295612057D02*
X367334587Y-293612057D01*
X367334587Y-294183485D02*
X367477444Y-293897771D01*
X367477444Y-293897771D02*
X367620302Y-293754914D01*
X367620302Y-293754914D02*
X367906016Y-293612057D01*
X367906016Y-293612057D02*
X368191730Y-293612057D01*
X273548871Y-293612057D02*
X274691728Y-293612057D01*
X273977442Y-292612057D02*
X273977442Y-295183485D01*
X273977442Y-295183485D02*
X274120299Y-295469200D01*
X274120299Y-295469200D02*
X274406014Y-295612057D01*
X274406014Y-295612057D02*
X274691728Y-295612057D01*
X276120300Y-295612057D02*
X275834585Y-295469200D01*
X275834585Y-295469200D02*
X275691728Y-295326342D01*
X275691728Y-295326342D02*
X275548871Y-295040628D01*
X275548871Y-295040628D02*
X275548871Y-294183485D01*
X275548871Y-294183485D02*
X275691728Y-293897771D01*
X275691728Y-293897771D02*
X275834585Y-293754914D01*
X275834585Y-293754914D02*
X276120300Y-293612057D01*
X276120300Y-293612057D02*
X276548871Y-293612057D01*
X276548871Y-293612057D02*
X276834585Y-293754914D01*
X276834585Y-293754914D02*
X276977443Y-293897771D01*
X276977443Y-293897771D02*
X277120300Y-294183485D01*
X277120300Y-294183485D02*
X277120300Y-295040628D01*
X277120300Y-295040628D02*
X276977443Y-295326342D01*
X276977443Y-295326342D02*
X276834585Y-295469200D01*
X276834585Y-295469200D02*
X276548871Y-295612057D01*
X276548871Y-295612057D02*
X276120300Y-295612057D01*
X280691728Y-295612057D02*
X280691728Y-292612057D01*
X280691728Y-293754914D02*
X280977443Y-293612057D01*
X280977443Y-293612057D02*
X281548871Y-293612057D01*
X281548871Y-293612057D02*
X281834585Y-293754914D01*
X281834585Y-293754914D02*
X281977443Y-293897771D01*
X281977443Y-293897771D02*
X282120300Y-294183485D01*
X282120300Y-294183485D02*
X282120300Y-295040628D01*
X282120300Y-295040628D02*
X281977443Y-295326342D01*
X281977443Y-295326342D02*
X281834585Y-295469200D01*
X281834585Y-295469200D02*
X281548871Y-295612057D01*
X281548871Y-295612057D02*
X280977443Y-295612057D01*
X280977443Y-295612057D02*
X280691728Y-295469200D01*
X284691729Y-295612057D02*
X284691729Y-294040628D01*
X284691729Y-294040628D02*
X284548871Y-293754914D01*
X284548871Y-293754914D02*
X284263157Y-293612057D01*
X284263157Y-293612057D02*
X283691729Y-293612057D01*
X283691729Y-293612057D02*
X283406014Y-293754914D01*
X284691729Y-295469200D02*
X284406014Y-295612057D01*
X284406014Y-295612057D02*
X283691729Y-295612057D01*
X283691729Y-295612057D02*
X283406014Y-295469200D01*
X283406014Y-295469200D02*
X283263157Y-295183485D01*
X283263157Y-295183485D02*
X283263157Y-294897771D01*
X283263157Y-294897771D02*
X283406014Y-294612057D01*
X283406014Y-294612057D02*
X283691729Y-294469200D01*
X283691729Y-294469200D02*
X284406014Y-294469200D01*
X284406014Y-294469200D02*
X284691729Y-294326342D01*
X285691729Y-293612057D02*
X286834586Y-293612057D01*
X286120300Y-292612057D02*
X286120300Y-295183485D01*
X286120300Y-295183485D02*
X286263157Y-295469200D01*
X286263157Y-295469200D02*
X286548872Y-295612057D01*
X286548872Y-295612057D02*
X286834586Y-295612057D01*
X287406015Y-293612057D02*
X288548872Y-293612057D01*
X287834586Y-292612057D02*
X287834586Y-295183485D01*
X287834586Y-295183485D02*
X287977443Y-295469200D01*
X287977443Y-295469200D02*
X288263158Y-295612057D01*
X288263158Y-295612057D02*
X288548872Y-295612057D01*
X290691729Y-295469200D02*
X290406015Y-295612057D01*
X290406015Y-295612057D02*
X289834587Y-295612057D01*
X289834587Y-295612057D02*
X289548872Y-295469200D01*
X289548872Y-295469200D02*
X289406015Y-295183485D01*
X289406015Y-295183485D02*
X289406015Y-294040628D01*
X289406015Y-294040628D02*
X289548872Y-293754914D01*
X289548872Y-293754914D02*
X289834587Y-293612057D01*
X289834587Y-293612057D02*
X290406015Y-293612057D01*
X290406015Y-293612057D02*
X290691729Y-293754914D01*
X290691729Y-293754914D02*
X290834587Y-294040628D01*
X290834587Y-294040628D02*
X290834587Y-294326342D01*
X290834587Y-294326342D02*
X289406015Y-294612057D01*
X292120301Y-295612057D02*
X292120301Y-293612057D01*
X292120301Y-294183485D02*
X292263158Y-293897771D01*
X292263158Y-293897771D02*
X292406016Y-293754914D01*
X292406016Y-293754914D02*
X292691730Y-293612057D01*
X292691730Y-293612057D02*
X292977444Y-293612057D01*
X293691730Y-293612057D02*
X294406016Y-295612057D01*
X295120301Y-293612057D02*
X294406016Y-295612057D01*
X294406016Y-295612057D02*
X294120301Y-296326342D01*
X294120301Y-296326342D02*
X293977444Y-296469200D01*
X293977444Y-296469200D02*
X293691730Y-296612057D01*
D10*
X324828571Y-277456900D02*
X325971429Y-277456900D01*
X332078571Y-277706900D02*
X333221429Y-277706900D01*
X332650000Y-278278328D02*
X332650000Y-277135471D01*
X314028571Y-275956900D02*
X315171429Y-275956900D01*
X306528571Y-276206900D02*
X307671429Y-276206900D01*
X307100000Y-276778328D02*
X307100000Y-275635471D01*
D14*
%TO.C,R19*%
X362690000Y-235200000D02*
X464690000Y-235200000D01*
X362690000Y-242700000D02*
X362690000Y-235200000D01*
X362690000Y-250200000D02*
X362690000Y-242700000D01*
X464690000Y-235200000D02*
X464690000Y-250200000D01*
X464690000Y-250200000D02*
X362690000Y-250200000D01*
D15*
%TO.C,F4*%
X281000000Y-191335000D02*
X297000000Y-191335000D01*
X281000000Y-198065000D02*
X281000000Y-191335000D01*
X297000000Y-191335000D02*
X297000000Y-198065000D01*
X297000000Y-198065000D02*
X281000000Y-198065000D01*
%TO.C,F9*%
X281000000Y-113335000D02*
X297000000Y-113335000D01*
X281000000Y-120065000D02*
X281000000Y-113335000D01*
X297000000Y-113335000D02*
X297000000Y-120065000D01*
X297000000Y-120065000D02*
X281000000Y-120065000D01*
D16*
%TO.C,P8*%
X321140000Y-288610000D02*
X321140000Y-283000000D01*
X321990000Y-288610000D02*
X321140000Y-288610000D01*
X321990000Y-296310000D02*
X321990000Y-288610000D01*
X331450000Y-278890000D02*
X327710000Y-278890000D01*
X336010000Y-296310000D02*
X321990000Y-296310000D01*
X336010000Y-296310000D02*
X336010000Y-288610000D01*
X336860000Y-288610000D02*
X336010000Y-288610000D01*
X336860000Y-288610000D02*
X336860000Y-283000000D01*
X321140000Y-283000000D02*
G75*
G02*
X323133194Y-279477042I4110000J0D01*
G01*
X333989900Y-279041282D02*
G75*
G02*
X336860000Y-283000000I-1239898J-3918716D01*
G01*
D14*
%TO.C,R5*%
X140000000Y-181400000D02*
X242000000Y-181400000D01*
X140000000Y-196400000D02*
X140000000Y-181400000D01*
X242000000Y-181400000D02*
X242000000Y-188900000D01*
X242000000Y-188900000D02*
X242000000Y-196400000D01*
X242000000Y-196400000D02*
X140000000Y-196400000D01*
%TO.C,R16*%
X362690000Y-181200000D02*
X464690000Y-181200000D01*
X362690000Y-188700000D02*
X362690000Y-181200000D01*
X362690000Y-196200000D02*
X362690000Y-188700000D01*
X464690000Y-181200000D02*
X464690000Y-196200000D01*
X464690000Y-196200000D02*
X362690000Y-196200000D01*
D15*
%TO.C,F5*%
X281040000Y-181635000D02*
X297040000Y-181635000D01*
X281040000Y-188365000D02*
X281040000Y-181635000D01*
X297040000Y-181635000D02*
X297040000Y-188365000D01*
X297040000Y-188365000D02*
X281040000Y-188365000D01*
D16*
%TO.C,C4*%
X282011252Y-275265000D02*
X280588748Y-275265000D01*
X282011252Y-277085000D02*
X280588748Y-277085000D01*
D15*
%TO.C,F13*%
X307040000Y-123335000D02*
X323040000Y-123335000D01*
X307040000Y-130065000D02*
X307040000Y-123335000D01*
X323040000Y-123335000D02*
X323040000Y-130065000D01*
X323040000Y-130065000D02*
X307040000Y-130065000D01*
%TO.C,B9*%
D17*
X335490000Y-156100000D02*
X325890000Y-156100000D01*
X325890000Y-163300000D01*
X335490000Y-163300000D01*
X335490000Y-156100000D01*
D15*
%TO.C,F14*%
X307000000Y-162335000D02*
X323000000Y-162335000D01*
X307000000Y-169065000D02*
X307000000Y-162335000D01*
X323000000Y-162335000D02*
X323000000Y-169065000D01*
X323000000Y-169065000D02*
X307000000Y-169065000D01*
D16*
%TO.C,P7*%
X303140000Y-296310000D02*
X303140000Y-282000000D01*
X312290000Y-277890000D02*
X308550000Y-277890000D01*
X318860000Y-296310000D02*
X303140000Y-296310000D01*
X318860000Y-296310000D02*
X318860000Y-282000000D01*
X303140000Y-282000000D02*
G75*
G02*
X306048352Y-278069587I4110000J0D01*
G01*
X316866806Y-278477042D02*
G75*
G02*
X318860000Y-282000000I-2116805J-3522957D01*
G01*
D14*
%TO.C,R3*%
X140000000Y-217400000D02*
X242000000Y-217400000D01*
X140000000Y-232400000D02*
X140000000Y-217400000D01*
X242000000Y-217400000D02*
X242000000Y-224900000D01*
X242000000Y-224900000D02*
X242000000Y-232400000D01*
X242000000Y-232400000D02*
X140000000Y-232400000D01*
%TO.C,M2*%
X257425000Y-154800000D02*
X267425000Y-154800000D01*
X257425000Y-179800000D02*
X257425000Y-154800000D01*
X257425000Y-204800000D02*
X257425000Y-179800000D01*
X267425000Y-154800000D02*
X267425000Y-204800000D01*
X267425000Y-204800000D02*
X257425000Y-204800000D01*
D17*
%TO.C,POT1*%
X284000000Y-275975000D02*
X284000000Y-279775000D01*
D18*
X286830000Y-275250000D02*
X286830000Y-275250000D01*
X286852000Y-275250000D02*
X286852000Y-275250000D01*
D17*
X287600000Y-279775000D02*
X287600000Y-275975000D01*
D18*
X286830000Y-275250000D02*
G75*
G02*
X286852000Y-275250000I11000J0D01*
G01*
X286852000Y-275250000D02*
G75*
G02*
X286830000Y-275250000I-11000J0D01*
G01*
D14*
%TO.C,R6*%
X140000000Y-163400000D02*
X242000000Y-163400000D01*
X140000000Y-178400000D02*
X140000000Y-163400000D01*
X242000000Y-163400000D02*
X242000000Y-170900000D01*
X242000000Y-170900000D02*
X242000000Y-178400000D01*
X242000000Y-178400000D02*
X140000000Y-178400000D01*
D16*
%TO.C,C1*%
X282011252Y-285265000D02*
X280588748Y-285265000D01*
X282011252Y-287085000D02*
X280588748Y-287085000D01*
%TO.C,C3*%
X282192164Y-283815000D02*
X282407836Y-283815000D01*
X282192164Y-284535000D02*
X282407836Y-284535000D01*
%TO.C,D1*%
X356265000Y-288200000D02*
X356265000Y-290485000D01*
X356265000Y-290485000D02*
X357735000Y-290485000D01*
X357735000Y-290485000D02*
X357735000Y-288200000D01*
D15*
%TO.C,F17*%
X307000000Y-191335000D02*
X323000000Y-191335000D01*
X307000000Y-198065000D02*
X307000000Y-191335000D01*
X323000000Y-191335000D02*
X323000000Y-198065000D01*
X323000000Y-198065000D02*
X307000000Y-198065000D01*
%TO.C,SW1*%
D10*
X302000000Y-260000000D02*
X324000000Y-260000000D01*
X324000000Y-274000000D01*
X302000000Y-274000000D01*
X302000000Y-260000000D01*
D14*
%TO.C,R1*%
X140000000Y-253400000D02*
X242000000Y-253400000D01*
X140000000Y-268400000D02*
X140000000Y-253400000D01*
X242000000Y-253400000D02*
X242000000Y-260900000D01*
X242000000Y-260900000D02*
X242000000Y-268400000D01*
X242000000Y-268400000D02*
X140000000Y-268400000D01*
%TO.C,M5*%
X336265000Y-154600000D02*
X346265000Y-154600000D01*
X336265000Y-204600000D02*
X336265000Y-154600000D01*
X346265000Y-154600000D02*
X346265000Y-179600000D01*
X346265000Y-179600000D02*
X346265000Y-204600000D01*
X346265000Y-204600000D02*
X336265000Y-204600000D01*
%TO.C,B6*%
D17*
X268275000Y-99900000D02*
X277875000Y-99900000D01*
X277875000Y-92700000D01*
X268275000Y-92700000D01*
X268275000Y-99900000D01*
%TO.C,D3*%
X341900000Y-280110000D02*
X339100000Y-280110000D01*
X342660000Y-281890000D02*
X339100000Y-281890000D01*
D15*
%TO.C,F19*%
X307000000Y-240335000D02*
X323000000Y-240335000D01*
X307000000Y-247065000D02*
X307000000Y-240335000D01*
X323000000Y-240335000D02*
X323000000Y-247065000D01*
X323000000Y-247065000D02*
X307000000Y-247065000D01*
D16*
%TO.C,D2*%
X356265000Y-281987500D02*
X356265000Y-284272500D01*
X356265000Y-284272500D02*
X357735000Y-284272500D01*
X357735000Y-284272500D02*
X357735000Y-281987500D01*
D15*
%TO.C,F15*%
X307000000Y-172035000D02*
X323000000Y-172035000D01*
X307000000Y-178765000D02*
X307000000Y-172035000D01*
X323000000Y-172035000D02*
X323000000Y-178765000D01*
X323000000Y-178765000D02*
X307000000Y-178765000D01*
D14*
%TO.C,R11*%
X362690000Y-91450000D02*
X464690000Y-91450000D01*
X362690000Y-98950000D02*
X362690000Y-91450000D01*
X362690000Y-106450000D02*
X362690000Y-98950000D01*
X464690000Y-91450000D02*
X464690000Y-106450000D01*
X464690000Y-106450000D02*
X362690000Y-106450000D01*
%TO.C,R17*%
X362690000Y-199200000D02*
X464690000Y-199200000D01*
X362690000Y-206700000D02*
X362690000Y-199200000D01*
X362690000Y-214200000D02*
X362690000Y-206700000D01*
X464690000Y-199200000D02*
X464690000Y-214200000D01*
X464690000Y-214200000D02*
X362690000Y-214200000D01*
%TO.C,B11*%
D17*
X335540000Y-219730000D02*
X325940000Y-219730000D01*
X325940000Y-226930000D01*
X335540000Y-226930000D01*
X335540000Y-219730000D01*
D15*
%TO.C,F10*%
X280960000Y-103335000D02*
X296960000Y-103335000D01*
X280960000Y-110065000D02*
X280960000Y-103335000D01*
X296960000Y-103335000D02*
X296960000Y-110065000D01*
X296960000Y-110065000D02*
X280960000Y-110065000D01*
D14*
%TO.C,M3*%
X257500000Y-218400000D02*
X267500000Y-218400000D01*
X257500000Y-243400000D02*
X257500000Y-218400000D01*
X257500000Y-268400000D02*
X257500000Y-243400000D01*
X267500000Y-218400000D02*
X267500000Y-268400000D01*
X267500000Y-268400000D02*
X257500000Y-268400000D01*
%TO.C,M6*%
X336315000Y-218255000D02*
X346315000Y-218255000D01*
X336315000Y-268255000D02*
X336315000Y-218255000D01*
X346315000Y-218255000D02*
X346315000Y-243255000D01*
X346315000Y-243255000D02*
X346315000Y-268255000D01*
X346315000Y-268255000D02*
X336315000Y-268255000D01*
%TO.C,B7*%
D17*
X335540000Y-92730000D02*
X325940000Y-92730000D01*
X325940000Y-99930000D01*
X335540000Y-99930000D01*
X335540000Y-92730000D01*
D14*
%TO.C,R10*%
X140000000Y-91400000D02*
X242000000Y-91400000D01*
X140000000Y-106400000D02*
X140000000Y-91400000D01*
X242000000Y-91400000D02*
X242000000Y-98900000D01*
X242000000Y-98900000D02*
X242000000Y-106400000D01*
X242000000Y-106400000D02*
X140000000Y-106400000D01*
D15*
%TO.C,F21*%
X289635000Y-274200000D02*
X296365000Y-274200000D01*
X289635000Y-290200000D02*
X289635000Y-274200000D01*
X296365000Y-274200000D02*
X296365000Y-290200000D01*
X296365000Y-290200000D02*
X289635000Y-290200000D01*
%TO.C,F2*%
X281040000Y-240335000D02*
X297040000Y-240335000D01*
X281040000Y-247065000D02*
X281040000Y-240335000D01*
X297040000Y-240335000D02*
X297040000Y-247065000D01*
X297040000Y-247065000D02*
X281040000Y-247065000D01*
%TO.C,F3*%
X281000000Y-230335000D02*
X297000000Y-230335000D01*
X281000000Y-237065000D02*
X281000000Y-230335000D01*
X297000000Y-230335000D02*
X297000000Y-237065000D01*
X297000000Y-237065000D02*
X281000000Y-237065000D01*
D14*
%TO.C,R15*%
X362690000Y-163200000D02*
X464690000Y-163200000D01*
X362690000Y-170700000D02*
X362690000Y-163200000D01*
X362690000Y-178200000D02*
X362690000Y-170700000D01*
X464690000Y-163200000D02*
X464690000Y-178200000D01*
X464690000Y-178200000D02*
X362690000Y-178200000D01*
%TO.C,B2*%
D17*
X268275000Y-226900000D02*
X277875000Y-226900000D01*
X277875000Y-219700000D01*
X268275000Y-219700000D01*
X268275000Y-226900000D01*
D14*
%TO.C,R8*%
X140000000Y-127400000D02*
X242000000Y-127400000D01*
X140000000Y-142400000D02*
X140000000Y-127400000D01*
X242000000Y-127400000D02*
X242000000Y-134900000D01*
X242000000Y-134900000D02*
X242000000Y-142400000D01*
X242000000Y-142400000D02*
X140000000Y-142400000D01*
%TO.C,B12*%
D17*
X335540000Y-259730000D02*
X325940000Y-259730000D01*
X325940000Y-266930000D01*
X335540000Y-266930000D01*
X335540000Y-259730000D01*
D14*
%TO.C,R12*%
X362690000Y-109450000D02*
X464690000Y-109450000D01*
X362690000Y-116950000D02*
X362690000Y-109450000D01*
X362690000Y-124450000D02*
X362690000Y-116950000D01*
X464690000Y-109450000D02*
X464690000Y-124450000D01*
X464690000Y-124450000D02*
X362690000Y-124450000D01*
%TO.C,R7*%
X140000000Y-145400000D02*
X242000000Y-145400000D01*
X140000000Y-160400000D02*
X140000000Y-145400000D01*
X242000000Y-145400000D02*
X242000000Y-152900000D01*
X242000000Y-152900000D02*
X242000000Y-160400000D01*
X242000000Y-160400000D02*
X140000000Y-160400000D01*
D15*
%TO.C,F8*%
X281000000Y-123335000D02*
X297000000Y-123335000D01*
X281000000Y-130065000D02*
X281000000Y-123335000D01*
X297000000Y-123335000D02*
X297000000Y-130065000D01*
X297000000Y-130065000D02*
X281000000Y-130065000D01*
D16*
%TO.C,C5*%
X282011252Y-272765000D02*
X280588748Y-272765000D01*
X282011252Y-274585000D02*
X280588748Y-274585000D01*
D15*
%TO.C,F11*%
X307000000Y-103335000D02*
X323000000Y-103335000D01*
X307000000Y-110065000D02*
X307000000Y-103335000D01*
X323000000Y-103335000D02*
X323000000Y-110065000D01*
X323000000Y-110065000D02*
X307000000Y-110065000D01*
D14*
%TO.C,R14*%
X362690000Y-145200000D02*
X464690000Y-145200000D01*
X362690000Y-152700000D02*
X362690000Y-145200000D01*
X362690000Y-160200000D02*
X362690000Y-152700000D01*
X464690000Y-145200000D02*
X464690000Y-160200000D01*
X464690000Y-160200000D02*
X362690000Y-160200000D01*
D16*
%TO.C,U1*%
X280115000Y-280740000D02*
X280115000Y-279165000D01*
X280115000Y-283185000D02*
X280115000Y-281960000D01*
X283485000Y-279165000D02*
X283485000Y-280740000D01*
X283485000Y-281960000D02*
X283485000Y-283185000D01*
X280840000Y-283695000D02*
X280360000Y-283695000D01*
X280600000Y-283365000D01*
X280840000Y-283695000D01*
G36*
X280840000Y-283695000D02*
G01*
X280360000Y-283695000D01*
X280600000Y-283365000D01*
X280840000Y-283695000D01*
G37*
D14*
%TO.C,M1*%
X257500000Y-91375000D02*
X267500000Y-91375000D01*
X257500000Y-116375000D02*
X257500000Y-91375000D01*
X257500000Y-141375000D02*
X257500000Y-116375000D01*
X267500000Y-91375000D02*
X267500000Y-141375000D01*
X267500000Y-141375000D02*
X257500000Y-141375000D01*
%TO.C,B8*%
D17*
X335540000Y-132730000D02*
X325940000Y-132730000D01*
X325940000Y-139930000D01*
X335540000Y-139930000D01*
X335540000Y-132730000D01*
%TO.C,B10*%
X335490000Y-196100000D02*
X325890000Y-196100000D01*
X325890000Y-203300000D01*
X335490000Y-203300000D01*
X335490000Y-196100000D01*
%TO.C,B4*%
X268200000Y-163300000D02*
X277800000Y-163300000D01*
X277800000Y-156100000D01*
X268200000Y-156100000D01*
X268200000Y-163300000D01*
D15*
%TO.C,F1*%
X281000000Y-250335000D02*
X297000000Y-250335000D01*
X281000000Y-257065000D02*
X281000000Y-250335000D01*
X297000000Y-250335000D02*
X297000000Y-257065000D01*
X297000000Y-257065000D02*
X281000000Y-257065000D01*
D16*
%TO.C,C2*%
X282011252Y-287765000D02*
X280588748Y-287765000D01*
X282011252Y-289585000D02*
X280588748Y-289585000D01*
%TO.C,B1*%
D17*
X268275000Y-266900000D02*
X277875000Y-266900000D01*
X277875000Y-259700000D01*
X268275000Y-259700000D01*
X268275000Y-266900000D01*
D14*
%TO.C,R4*%
X140000000Y-199400000D02*
X242000000Y-199400000D01*
X140000000Y-214400000D02*
X140000000Y-199400000D01*
X242000000Y-199400000D02*
X242000000Y-206900000D01*
X242000000Y-206900000D02*
X242000000Y-214400000D01*
X242000000Y-214400000D02*
X140000000Y-214400000D01*
D15*
%TO.C,F20*%
X307040000Y-250335000D02*
X323040000Y-250335000D01*
X307040000Y-257065000D02*
X307040000Y-250335000D01*
X323040000Y-250335000D02*
X323040000Y-257065000D01*
X323040000Y-257065000D02*
X307040000Y-257065000D01*
%TO.C,B5*%
D17*
X268275000Y-139900000D02*
X277875000Y-139900000D01*
X277875000Y-132700000D01*
X268275000Y-132700000D01*
X268275000Y-139900000D01*
D15*
%TO.C,F18*%
X307000000Y-230335000D02*
X323000000Y-230335000D01*
X307000000Y-237065000D02*
X307000000Y-230335000D01*
X323000000Y-230335000D02*
X323000000Y-237065000D01*
X323000000Y-237065000D02*
X307000000Y-237065000D01*
%TO.C,F7*%
X281000000Y-162335000D02*
X297000000Y-162335000D01*
X281000000Y-169065000D02*
X281000000Y-162335000D01*
X297000000Y-162335000D02*
X297000000Y-169065000D01*
X297000000Y-169065000D02*
X281000000Y-169065000D01*
D14*
%TO.C,R9*%
X140000000Y-109400000D02*
X242000000Y-109400000D01*
X140000000Y-124400000D02*
X140000000Y-109400000D01*
X242000000Y-109400000D02*
X242000000Y-116900000D01*
X242000000Y-116900000D02*
X242000000Y-124400000D01*
X242000000Y-124400000D02*
X140000000Y-124400000D01*
%TO.C,B3*%
D17*
X268200000Y-203300000D02*
X277800000Y-203300000D01*
X277800000Y-196100000D01*
X268200000Y-196100000D01*
X268200000Y-203300000D01*
D14*
%TO.C,R18*%
X362690000Y-217200000D02*
X464690000Y-217200000D01*
X362690000Y-224700000D02*
X362690000Y-217200000D01*
X362690000Y-232200000D02*
X362690000Y-224700000D01*
X464690000Y-217200000D02*
X464690000Y-232200000D01*
X464690000Y-232200000D02*
X362690000Y-232200000D01*
D17*
%TO.C,D4*%
X335610000Y-276160000D02*
X335610000Y-272600000D01*
X337390000Y-275400000D02*
X337390000Y-272600000D01*
D15*
%TO.C,F12*%
X307000000Y-113335000D02*
X323000000Y-113335000D01*
X307000000Y-120065000D02*
X307000000Y-113335000D01*
X323000000Y-113335000D02*
X323000000Y-120065000D01*
X323000000Y-120065000D02*
X307000000Y-120065000D01*
D14*
%TO.C,M4*%
X336315000Y-91230000D02*
X346315000Y-91230000D01*
X336315000Y-141230000D02*
X336315000Y-91230000D01*
X346315000Y-91230000D02*
X346315000Y-116230000D01*
X346315000Y-116230000D02*
X346315000Y-141230000D01*
X346315000Y-141230000D02*
X336315000Y-141230000D01*
D16*
%TO.C,C6*%
X282192164Y-277815000D02*
X282407836Y-277815000D01*
X282192164Y-278535000D02*
X282407836Y-278535000D01*
D15*
%TO.C,F6*%
X280960000Y-172035000D02*
X296960000Y-172035000D01*
X280960000Y-178765000D02*
X280960000Y-172035000D01*
X296960000Y-172035000D02*
X296960000Y-178765000D01*
X296960000Y-178765000D02*
X280960000Y-178765000D01*
D14*
%TO.C,R20*%
X362690000Y-253200000D02*
X464690000Y-253200000D01*
X362690000Y-260700000D02*
X362690000Y-253200000D01*
X362690000Y-268200000D02*
X362690000Y-260700000D01*
X464690000Y-253200000D02*
X464690000Y-268200000D01*
X464690000Y-268200000D02*
X362690000Y-268200000D01*
%TO.C,R13*%
X362690000Y-127200000D02*
X464690000Y-127200000D01*
X362690000Y-134700000D02*
X362690000Y-127200000D01*
X362690000Y-142200000D02*
X362690000Y-134700000D01*
X464690000Y-127200000D02*
X464690000Y-142200000D01*
X464690000Y-142200000D02*
X362690000Y-142200000D01*
D15*
%TO.C,F16*%
X307000000Y-181835000D02*
X323000000Y-181835000D01*
X307000000Y-188565000D02*
X307000000Y-181835000D01*
X323000000Y-181835000D02*
X323000000Y-188565000D01*
X323000000Y-188565000D02*
X307000000Y-188565000D01*
D14*
%TO.C,R2*%
X140000000Y-235400000D02*
X242000000Y-235400000D01*
X140000000Y-250400000D02*
X140000000Y-235400000D01*
X242000000Y-235400000D02*
X242000000Y-242900000D01*
X242000000Y-242900000D02*
X242000000Y-250400000D01*
X242000000Y-250400000D02*
X140000000Y-250400000D01*
D15*
%TO.C,H1*%
X147405877Y-275700000D02*
G75*
G02*
X140594123Y-275700000I-3405877J0D01*
G01*
X140594123Y-275700000D02*
G75*
G02*
X147405877Y-275700000I3405877J0D01*
G01*
%TO.C,H8*%
X464905877Y-275700000D02*
G75*
G02*
X458094123Y-275700000I-3405877J0D01*
G01*
X458094123Y-275700000D02*
G75*
G02*
X464905877Y-275700000I3405877J0D01*
G01*
%TO.C,H12*%
X324405877Y-223700000D02*
G75*
G02*
X317594123Y-223700000I-3405877J0D01*
G01*
X317594123Y-223700000D02*
G75*
G02*
X324405877Y-223700000I3405877J0D01*
G01*
%TO.C,H7*%
X464905877Y-85700000D02*
G75*
G02*
X458094123Y-85700000I-3405877J0D01*
G01*
X458094123Y-85700000D02*
G75*
G02*
X464905877Y-85700000I3405877J0D01*
G01*
%TO.C,H11*%
X286405877Y-223700000D02*
G75*
G02*
X279594123Y-223700000I-3405877J0D01*
G01*
X279594123Y-223700000D02*
G75*
G02*
X286405877Y-223700000I3405877J0D01*
G01*
%TO.C,H3*%
X239905877Y-275700000D02*
G75*
G02*
X233094123Y-275700000I-3405877J0D01*
G01*
X233094123Y-275700000D02*
G75*
G02*
X239905877Y-275700000I3405877J0D01*
G01*
%TO.C,H5*%
X369905877Y-85700000D02*
G75*
G02*
X363094123Y-85700000I-3405877J0D01*
G01*
X363094123Y-85700000D02*
G75*
G02*
X369905877Y-85700000I3405877J0D01*
G01*
%TO.C,H10*%
X324405877Y-136700000D02*
G75*
G02*
X317594123Y-136700000I-3405877J0D01*
G01*
X317594123Y-136700000D02*
G75*
G02*
X324405877Y-136700000I3405877J0D01*
G01*
%TO.C,H6*%
X239905877Y-85700000D02*
G75*
G02*
X233094123Y-85700000I-3405877J0D01*
G01*
X233094123Y-85700000D02*
G75*
G02*
X239905877Y-85700000I3405877J0D01*
G01*
%TO.C,H2*%
X147405877Y-85700000D02*
G75*
G02*
X140594123Y-85700000I-3405877J0D01*
G01*
X140594123Y-85700000D02*
G75*
G02*
X147405877Y-85700000I3405877J0D01*
G01*
%TO.C,H4*%
X369905877Y-275700000D02*
G75*
G02*
X363094123Y-275700000I-3405877J0D01*
G01*
X363094123Y-275700000D02*
G75*
G02*
X369905877Y-275700000I3405877J0D01*
G01*
%TO.C,H9*%
X286405877Y-136700000D02*
G75*
G02*
X279594123Y-136700000I-3405877J0D01*
G01*
X279594123Y-136700000D02*
G75*
G02*
X286405877Y-136700000I3405877J0D01*
G01*
%TD*%
M02*
