M48
; DRILL file {KiCad 9.0.7} date 2026-04-21T17:21:04+0200
; FORMAT={-:-/ absolute / metric / decimal}
; #@! TF.CreationDate,2026-04-21T17:21:04+02:00
; #@! TF.GenerationSoftware,Kicad,Pcbnew,9.0.7
; #@! TF.FileFunction,Plated,1,2,PTH
FMAT,2
METRIC
; #@! TA.AperFunction,Plated,PTH,ViaDrill
T1C0.300
; #@! TA.AperFunction,Plated,PTH,ViaDrill
T2C0.400
; #@! TA.AperFunction,Plated,PTH,ComponentDrill
T3C0.600
; #@! TA.AperFunction,Plated,PTH,ComponentDrill
T4C0.700
; #@! TA.AperFunction,Plated,PTH,ComponentDrill
T5C1.000
; #@! TA.AperFunction,Plated,PTH,ComponentDrill
T6C1.600
; #@! TA.AperFunction,Plated,PTH,ComponentDrill
T7C2.700
%
G90
G05
T1
X278.4Y-273.7
X278.4Y-276.1
X278.4Y-286.1
X278.4Y-288.7
X279.4Y-281.5
X279.6Y-282.7
X280.8Y-278.1
X281.0Y-284.1
X284.0Y-281.3
X286.8Y-277.7
X357.0Y-285.0
X357.0Y-291.0
T2
X283.0Y-270.7
T6
X284.0Y-105.0
X284.0Y-108.4
X284.0Y-173.7
X284.0Y-177.1
X284.04Y-115.0
X284.04Y-118.4
X284.04Y-125.0
X284.04Y-128.4
X284.04Y-164.0
X284.04Y-167.4
X284.04Y-193.0
X284.04Y-196.4
X284.04Y-232.0
X284.04Y-235.4
X284.04Y-252.0
X284.04Y-255.4
X284.08Y-183.3
X284.08Y-186.7
X284.08Y-242.0
X284.08Y-245.4
X291.3Y-277.24
X291.3Y-287.16
X293.92Y-105.0
X293.92Y-108.4
X293.92Y-173.7
X293.92Y-177.1
X293.96Y-115.0
X293.96Y-118.4
X293.96Y-125.0
X293.96Y-128.4
X293.96Y-164.0
X293.96Y-167.4
X293.96Y-193.0
X293.96Y-196.4
X293.96Y-232.0
X293.96Y-235.4
X293.96Y-252.0
X293.96Y-255.4
X294.0Y-183.3
X294.0Y-186.7
X294.0Y-242.0
X294.0Y-245.4
X294.7Y-277.24
X294.7Y-287.16
X310.04Y-105.0
X310.04Y-108.4
X310.04Y-115.0
X310.04Y-118.4
X310.04Y-164.0
X310.04Y-167.4
X310.04Y-173.7
X310.04Y-177.1
X310.04Y-183.5
X310.04Y-186.9
X310.04Y-193.0
X310.04Y-196.4
X310.04Y-232.0
X310.04Y-235.4
X310.04Y-242.0
X310.04Y-245.4
X310.08Y-125.0
X310.08Y-128.4
X310.08Y-252.0
X310.08Y-255.4
X319.96Y-105.0
X319.96Y-108.4
X319.96Y-115.0
X319.96Y-118.4
X319.96Y-164.0
X319.96Y-167.4
X319.96Y-173.7
X319.96Y-177.1
X319.96Y-183.5
X319.96Y-186.9
X319.96Y-193.0
X319.96Y-196.4
X319.96Y-232.0
X319.96Y-235.4
X319.96Y-242.0
X319.96Y-245.4
X320.0Y-125.0
X320.0Y-128.4
X320.0Y-252.0
X320.0Y-255.4
T7
X307.4Y-279.85
X314.6Y-279.85
X325.4Y-280.85
X332.6Y-280.85
T3
G00X304.25Y-286.4
M15
G01X304.25Y-285.3
M16
G05
G00X317.75Y-286.4
M15
G01X317.75Y-285.3
M16
G05
G00X322.25Y-287.4
M15
G01X322.25Y-286.3
M16
G05
G00X335.75Y-287.4
M15
G01X335.75Y-286.3
M16
G05
T4
G00X149.9Y-98.9
M15
G01X142.1Y-98.9
M16
G05
G00X149.9Y-116.9
M15
G01X142.1Y-116.9
M16
G05
G00X149.9Y-134.9
M15
G01X142.1Y-134.9
M16
G05
G00X149.9Y-152.9
M15
G01X142.1Y-152.9
M16
G05
G00X149.9Y-170.9
M15
G01X142.1Y-170.9
M16
G05
G00X149.9Y-188.9
M15
G01X142.1Y-188.9
M16
G05
G00X149.9Y-206.9
M15
G01X142.1Y-206.9
M16
G05
G00X149.9Y-224.9
M15
G01X142.1Y-224.9
M16
G05
G00X149.9Y-242.9
M15
G01X142.1Y-242.9
M16
G05
G00X149.9Y-260.9
M15
G01X142.1Y-260.9
M16
G05
G00X239.9Y-99.0
M15
G01X232.1Y-99.0
M16
G05
G00X239.9Y-117.0
M15
G01X232.1Y-117.0
M16
G05
G00X239.9Y-135.0
M15
G01X232.1Y-135.0
M16
G05
G00X239.9Y-153.0
M15
G01X232.1Y-153.0
M16
G05
G00X239.9Y-171.0
M15
G01X232.1Y-171.0
M16
G05
G00X239.9Y-189.0
M15
G01X232.1Y-189.0
M16
G05
G00X239.9Y-207.0
M15
G01X232.1Y-207.0
M16
G05
G00X239.9Y-225.0
M15
G01X232.1Y-225.0
M16
G05
G00X239.9Y-243.0
M15
G01X232.1Y-243.0
M16
G05
G00X239.9Y-261.0
M15
G01X232.1Y-261.0
M16
G05
G00X364.79Y-98.85
M15
G01X372.59Y-98.85
M16
G05
G00X364.79Y-116.85
M15
G01X372.59Y-116.85
M16
G05
G00X364.79Y-134.6
M15
G01X372.59Y-134.6
M16
G05
G00X364.79Y-152.6
M15
G01X372.59Y-152.6
M16
G05
G00X364.79Y-170.6
M15
G01X372.59Y-170.6
M16
G05
G00X364.79Y-188.6
M15
G01X372.59Y-188.6
M16
G05
G00X364.79Y-206.6
M15
G01X372.59Y-206.6
M16
G05
G00X364.79Y-224.6
M15
G01X372.59Y-224.6
M16
G05
G00X364.79Y-242.6
M15
G01X372.59Y-242.6
M16
G05
G00X364.79Y-260.6
M15
G01X372.59Y-260.6
M16
G05
G00X454.79Y-98.95
M15
G01X462.59Y-98.95
M16
G05
G00X454.79Y-116.95
M15
G01X462.59Y-116.95
M16
G05
G00X454.79Y-134.7
M15
G01X462.59Y-134.7
M16
G05
G00X454.79Y-152.7
M15
G01X462.59Y-152.7
M16
G05
G00X454.79Y-170.7
M15
G01X462.59Y-170.7
M16
G05
G00X454.79Y-188.7
M15
G01X462.59Y-188.7
M16
G05
G00X454.79Y-206.7
M15
G01X462.59Y-206.7
M16
G05
G00X454.79Y-224.7
M15
G01X462.59Y-224.7
M16
G05
G00X454.79Y-242.7
M15
G01X462.59Y-242.7
M16
G05
G00X454.79Y-260.7
M15
G01X462.59Y-260.7
M16
G05
T5
G00X306.0Y-265.0
M15
G01X306.0Y-269.0
M16
G05
G00X313.0Y-265.0
M15
G01X313.0Y-269.0
M16
G05
G00X320.0Y-265.0
M15
G01X320.0Y-269.0
M16
G05
M30
