%TF.GenerationSoftware,KiCad,Pcbnew,9.0.7*%
%TF.CreationDate,2026-04-21T17:29:31+02:00*%
%TF.ProjectId,openbms-load,6f70656e-626d-4732-9d6c-6f61642e6b69,Rev  A*%
%TF.SameCoordinates,Original*%
%TF.FileFunction,Profile,NP*%
%FSLAX46Y46*%
G04 Gerber Fmt 4.6, Leading zero omitted, Abs format (unit mm)*
G04 Created by KiCad (PCBNEW 9.0.7) date 2026-04-21 17:29:31*
%MOMM*%
%LPD*%
G01*
G04 APERTURE LIST*
%TA.AperFunction,Profile*%
%ADD10C,0.050000*%
%TD*%
G04 APERTURE END LIST*
D10*
X271500000Y-84750000D02*
X278000000Y-84750000D01*
X278000000Y-91250000D01*
X271500000Y-91250000D01*
X271500000Y-84750000D01*
%TA.AperFunction,Profile*%
G36*
X271500000Y-84750000D02*
G01*
X278000000Y-84750000D01*
X278000000Y-91250000D01*
X271500000Y-91250000D01*
X271500000Y-84750000D01*
G37*
%TD.AperFunction*%
X139000000Y-78200000D02*
X466500000Y-78200000D01*
X466500000Y-297690000D01*
X139000000Y-297690000D01*
X139000000Y-78200000D01*
X338750000Y-270750000D02*
X345250000Y-270750000D01*
X345250000Y-277250000D01*
X338750000Y-277250000D01*
X338750000Y-270750000D01*
%TA.AperFunction,Profile*%
G36*
X338750000Y-270750000D02*
G01*
X345250000Y-270750000D01*
X345250000Y-277250000D01*
X338750000Y-277250000D01*
X338750000Y-270750000D01*
G37*
%TD.AperFunction*%
X271500000Y-204700000D02*
X287000000Y-204700000D01*
X287000000Y-217700000D01*
X271500000Y-217700000D01*
X271500000Y-204700000D01*
%TA.AperFunction,Profile*%
G36*
X271500000Y-204700000D02*
G01*
X287000000Y-204700000D01*
X287000000Y-217700000D01*
X271500000Y-217700000D01*
X271500000Y-204700000D01*
G37*
%TD.AperFunction*%
X315500000Y-141700000D02*
X331000000Y-141700000D01*
X331000000Y-154700000D01*
X315500000Y-154700000D01*
X315500000Y-141700000D01*
%TA.AperFunction,Profile*%
G36*
X315500000Y-141700000D02*
G01*
X331000000Y-141700000D01*
X331000000Y-154700000D01*
X315500000Y-154700000D01*
X315500000Y-141700000D01*
G37*
%TD.AperFunction*%
X315500000Y-204500000D02*
X331000000Y-204500000D01*
X331000000Y-217500000D01*
X315500000Y-217500000D01*
X315500000Y-204500000D01*
%TA.AperFunction,Profile*%
G36*
X315500000Y-204500000D02*
G01*
X331000000Y-204500000D01*
X331000000Y-217500000D01*
X315500000Y-217500000D01*
X315500000Y-204500000D01*
G37*
%TD.AperFunction*%
X271500000Y-141700000D02*
X287000000Y-141700000D01*
X287000000Y-154700000D01*
X271500000Y-154700000D01*
X271500000Y-141700000D01*
%TA.AperFunction,Profile*%
G36*
X271500000Y-141700000D02*
G01*
X287000000Y-141700000D01*
X287000000Y-154700000D01*
X271500000Y-154700000D01*
X271500000Y-141700000D01*
G37*
%TD.AperFunction*%
M02*
