%TF.GenerationSoftware,KiCad,Pcbnew,9.0.7*%
%TF.CreationDate,2026-04-21T17:29:31+02:00*%
%TF.ProjectId,openbms-load,6f70656e-626d-4732-9d6c-6f61642e6b69,Rev  A*%
%TF.SameCoordinates,Original*%
%TF.FileFunction,Soldermask,Top*%
%TF.FilePolarity,Negative*%
%FSLAX46Y46*%
G04 Gerber Fmt 4.6, Leading zero omitted, Abs format (unit mm)*
G04 Created by KiCad (PCBNEW 9.0.7) date 2026-04-21 17:29:31*
%MOMM*%
%LPD*%
G01*
G04 APERTURE LIST*
G04 Aperture macros list*
%AMRoundRect*
0 Rectangle with rounded corners*
0 $1 Rounding radius*
0 $2 $3 $4 $5 $6 $7 $8 $9 X,Y pos of 4 corners*
0 Add a 4 corners polygon primitive as box body*
4,1,4,$2,$3,$4,$5,$6,$7,$8,$9,$2,$3,0*
0 Add four circle primitives for the rounded corners*
1,1,$1+$1,$2,$3*
1,1,$1+$1,$4,$5*
1,1,$1+$1,$6,$7*
1,1,$1+$1,$8,$9*
0 Add four rect primitives between the rounded corners*
20,1,$1+$1,$2,$3,$4,$5,0*
20,1,$1+$1,$4,$5,$6,$7,0*
20,1,$1+$1,$6,$7,$8,$9,0*
20,1,$1+$1,$8,$9,$2,$3,0*%
G04 Aperture macros list end*
%ADD10O,10.500000X4.500000*%
%ADD11C,2.400000*%
%ADD12R,0.900000X2.000000*%
%ADD13RoundRect,1.025000X1.025000X1.025000X-1.025000X1.025000X-1.025000X-1.025000X1.025000X-1.025000X0*%
%ADD14C,4.100000*%
%ADD15RoundRect,0.250000X0.325000X0.650000X-0.325000X0.650000X-0.325000X-0.650000X0.325000X-0.650000X0*%
%ADD16C,1.905000*%
%ADD17R,1.200000X1.200000*%
%ADD18R,1.600000X1.500000*%
%ADD19RoundRect,0.140000X-0.140000X-0.170000X0.140000X-0.170000X0.140000X0.170000X-0.140000X0.170000X0*%
%ADD20RoundRect,0.218750X0.256250X-0.218750X0.256250X0.218750X-0.256250X0.218750X-0.256250X-0.218750X0*%
%ADD21RoundRect,0.375000X-0.875000X-3.125000X0.875000X-3.125000X0.875000X3.125000X-0.875000X3.125000X0*%
%ADD22R,1.120000X1.270000*%
%ADD23RoundRect,0.100000X0.100000X-0.300000X0.100000X0.300000X-0.100000X0.300000X-0.100000X-0.300000X0*%
%ADD24R,2.900000X0.700000*%
%ADD25R,1.270000X1.120000*%
%ADD26C,6.000000*%
G04 APERTURE END LIST*
D10*
%TO.C,R19*%
X368690000Y-242600000D03*
X458690000Y-242700000D03*
%TD*%
D11*
%TO.C,F4*%
X293960000Y-196400000D03*
X293960000Y-193000000D03*
X284040000Y-196400000D03*
X284040000Y-193000000D03*
%TD*%
%TO.C,F9*%
X293960000Y-118400000D03*
X293960000Y-115000000D03*
X284040000Y-118400000D03*
X284040000Y-115000000D03*
%TD*%
D12*
%TO.C,P8*%
X335750000Y-286850000D03*
X322250000Y-286850000D03*
D13*
X325400000Y-280850000D03*
D14*
X332600000Y-280850000D03*
%TD*%
D10*
%TO.C,R5*%
X236000000Y-189000000D03*
X146000000Y-188900000D03*
%TD*%
%TO.C,R16*%
X368690000Y-188600000D03*
X458690000Y-188700000D03*
%TD*%
D11*
%TO.C,F5*%
X294000000Y-186700000D03*
X294000000Y-183300000D03*
X284080000Y-186700000D03*
X284080000Y-183300000D03*
%TD*%
D15*
%TO.C,C4*%
X282775000Y-276175000D03*
X279825000Y-276175000D03*
%TD*%
D11*
%TO.C,F13*%
X310080000Y-125000000D03*
X310080000Y-128400000D03*
X320000000Y-125000000D03*
X320000000Y-128400000D03*
%TD*%
D16*
%TO.C,B9*%
X329950000Y-159670000D03*
%TD*%
D11*
%TO.C,F14*%
X310040000Y-164000000D03*
X310040000Y-167400000D03*
X319960000Y-164000000D03*
X319960000Y-167400000D03*
%TD*%
D12*
%TO.C,P7*%
X317750000Y-285850000D03*
X304250000Y-285850000D03*
D13*
X314600000Y-279850000D03*
D14*
X307400000Y-279850000D03*
%TD*%
D10*
%TO.C,R3*%
X236000000Y-225000000D03*
X146000000Y-224900000D03*
%TD*%
D17*
%TO.C,POT1*%
X286800000Y-276175000D03*
D18*
X285800000Y-279425000D03*
D17*
X284800000Y-276175000D03*
%TD*%
D10*
%TO.C,R6*%
X236000000Y-171000000D03*
X146000000Y-170900000D03*
%TD*%
D15*
%TO.C,C1*%
X282775000Y-286175000D03*
X279825000Y-286175000D03*
%TD*%
D19*
%TO.C,C3*%
X281820000Y-284175000D03*
X282780000Y-284175000D03*
%TD*%
D20*
%TO.C,D1*%
X357000000Y-289787500D03*
X357000000Y-288212500D03*
%TD*%
D11*
%TO.C,F17*%
X310040000Y-193000000D03*
X310040000Y-196400000D03*
X319960000Y-193000000D03*
X319960000Y-196400000D03*
%TD*%
D21*
%TO.C,SW1*%
X306000000Y-267000000D03*
X313000000Y-267000000D03*
X320000000Y-267000000D03*
%TD*%
D10*
%TO.C,R1*%
X236000000Y-261000000D03*
X146000000Y-260900000D03*
%TD*%
D16*
%TO.C,B6*%
X273815000Y-96330000D03*
%TD*%
D22*
%TO.C,D3*%
X342100000Y-281000000D03*
X338900000Y-281000000D03*
%TD*%
D11*
%TO.C,F19*%
X310040000Y-242000000D03*
X310040000Y-245400000D03*
X319960000Y-242000000D03*
X319960000Y-245400000D03*
%TD*%
D20*
%TO.C,D2*%
X357000000Y-283575000D03*
X357000000Y-282000000D03*
%TD*%
D11*
%TO.C,F15*%
X310040000Y-173700000D03*
X310040000Y-177100000D03*
X319960000Y-173700000D03*
X319960000Y-177100000D03*
%TD*%
D10*
%TO.C,R11*%
X368690000Y-98850000D03*
X458690000Y-98950000D03*
%TD*%
%TO.C,R17*%
X368690000Y-206600000D03*
X458690000Y-206700000D03*
%TD*%
D16*
%TO.C,B11*%
X330000000Y-223300000D03*
%TD*%
D11*
%TO.C,F10*%
X293920000Y-108400000D03*
X293920000Y-105000000D03*
X284000000Y-108400000D03*
X284000000Y-105000000D03*
%TD*%
D16*
%TO.C,B7*%
X330000000Y-96300000D03*
%TD*%
D10*
%TO.C,R10*%
X236000000Y-99000000D03*
X146000000Y-98900000D03*
%TD*%
D11*
%TO.C,F21*%
X294700000Y-277240000D03*
X291300000Y-277240000D03*
X294700000Y-287160000D03*
X291300000Y-287160000D03*
%TD*%
%TO.C,F2*%
X294000000Y-245400000D03*
X294000000Y-242000000D03*
X284080000Y-245400000D03*
X284080000Y-242000000D03*
%TD*%
%TO.C,F3*%
X293960000Y-235400000D03*
X293960000Y-232000000D03*
X284040000Y-235400000D03*
X284040000Y-232000000D03*
%TD*%
D10*
%TO.C,R15*%
X368690000Y-170600000D03*
X458690000Y-170700000D03*
%TD*%
D16*
%TO.C,B2*%
X273815000Y-223330000D03*
%TD*%
D10*
%TO.C,R8*%
X236000000Y-135000000D03*
X146000000Y-134900000D03*
%TD*%
D16*
%TO.C,B12*%
X330000000Y-263300000D03*
%TD*%
D10*
%TO.C,R12*%
X368690000Y-116850000D03*
X458690000Y-116950000D03*
%TD*%
%TO.C,R7*%
X236000000Y-153000000D03*
X146000000Y-152900000D03*
%TD*%
D11*
%TO.C,F8*%
X293960000Y-128400000D03*
X293960000Y-125000000D03*
X284040000Y-128400000D03*
X284040000Y-125000000D03*
%TD*%
D15*
%TO.C,C5*%
X282775000Y-273675000D03*
X279825000Y-273675000D03*
%TD*%
D11*
%TO.C,F11*%
X310040000Y-105000000D03*
X310040000Y-108400000D03*
X319960000Y-105000000D03*
X319960000Y-108400000D03*
%TD*%
D10*
%TO.C,R14*%
X368690000Y-152600000D03*
X458690000Y-152700000D03*
%TD*%
D23*
%TO.C,U1*%
X280600000Y-282700000D03*
X281200000Y-282700000D03*
X281800000Y-282700000D03*
X282400000Y-282700000D03*
X283000000Y-282700000D03*
X283000000Y-279650000D03*
X282400000Y-279650000D03*
X281800000Y-279650000D03*
X281200000Y-279650000D03*
X280600000Y-279650000D03*
D24*
X281800000Y-281350000D03*
%TD*%
D16*
%TO.C,B8*%
X330000000Y-136300000D03*
%TD*%
%TO.C,B10*%
X329950000Y-199670000D03*
%TD*%
%TO.C,B4*%
X273740000Y-159730000D03*
%TD*%
D11*
%TO.C,F1*%
X293960000Y-255400000D03*
X293960000Y-252000000D03*
X284040000Y-255400000D03*
X284040000Y-252000000D03*
%TD*%
D15*
%TO.C,C2*%
X282775000Y-288675000D03*
X279825000Y-288675000D03*
%TD*%
D16*
%TO.C,B1*%
X273815000Y-263330000D03*
%TD*%
D10*
%TO.C,R4*%
X236000000Y-207000000D03*
X146000000Y-206900000D03*
%TD*%
D11*
%TO.C,F20*%
X310080000Y-252000000D03*
X310080000Y-255400000D03*
X320000000Y-252000000D03*
X320000000Y-255400000D03*
%TD*%
D16*
%TO.C,B5*%
X273815000Y-136330000D03*
%TD*%
D11*
%TO.C,F18*%
X310040000Y-232000000D03*
X310040000Y-235400000D03*
X319960000Y-232000000D03*
X319960000Y-235400000D03*
%TD*%
%TO.C,F7*%
X293960000Y-167400000D03*
X293960000Y-164000000D03*
X284040000Y-167400000D03*
X284040000Y-164000000D03*
%TD*%
D10*
%TO.C,R9*%
X236000000Y-117000000D03*
X146000000Y-116900000D03*
%TD*%
D16*
%TO.C,B3*%
X273740000Y-199730000D03*
%TD*%
D10*
%TO.C,R18*%
X368690000Y-224600000D03*
X458690000Y-224700000D03*
%TD*%
D25*
%TO.C,D4*%
X336500000Y-275600000D03*
X336500000Y-272400000D03*
%TD*%
D11*
%TO.C,F12*%
X310040000Y-115000000D03*
X310040000Y-118400000D03*
X319960000Y-115000000D03*
X319960000Y-118400000D03*
%TD*%
D19*
%TO.C,C6*%
X281820000Y-278175000D03*
X282780000Y-278175000D03*
%TD*%
D11*
%TO.C,F6*%
X293920000Y-177100000D03*
X293920000Y-173700000D03*
X284000000Y-177100000D03*
X284000000Y-173700000D03*
%TD*%
D10*
%TO.C,R20*%
X368690000Y-260600000D03*
X458690000Y-260700000D03*
%TD*%
%TO.C,R13*%
X368690000Y-134600000D03*
X458690000Y-134700000D03*
%TD*%
D11*
%TO.C,F16*%
X310040000Y-183500000D03*
X310040000Y-186900000D03*
X319960000Y-183500000D03*
X319960000Y-186900000D03*
%TD*%
D10*
%TO.C,R2*%
X236000000Y-243000000D03*
X146000000Y-242900000D03*
%TD*%
D26*
%TO.C,H1*%
X144000000Y-275700000D03*
%TD*%
%TO.C,H8*%
X461500000Y-275700000D03*
%TD*%
%TO.C,H12*%
X321000000Y-223700000D03*
%TD*%
%TO.C,H7*%
X461500000Y-85700000D03*
%TD*%
%TO.C,H11*%
X283000000Y-223700000D03*
%TD*%
%TO.C,H3*%
X236500000Y-275700000D03*
%TD*%
%TO.C,H5*%
X366500000Y-85700000D03*
%TD*%
%TO.C,H10*%
X321000000Y-136700000D03*
%TD*%
%TO.C,H6*%
X236500000Y-85700000D03*
%TD*%
%TO.C,H2*%
X144000000Y-85700000D03*
%TD*%
%TO.C,H4*%
X366500000Y-275700000D03*
%TD*%
%TO.C,H9*%
X283000000Y-136700000D03*
%TD*%
M02*
