%TF.GenerationSoftware,KiCad,Pcbnew,9.0.7*%
%TF.CreationDate,2026-04-21T17:29:31+02:00*%
%TF.ProjectId,openbms-load,6f70656e-626d-4732-9d6c-6f61642e6b69,Rev  A*%
%TF.SameCoordinates,Original*%
%TF.FileFunction,Legend,Bot*%
%TF.FilePolarity,Positive*%
%FSLAX46Y46*%
G04 Gerber Fmt 4.6, Leading zero omitted, Abs format (unit mm)*
G04 Created by KiCad (PCBNEW 9.0.7) date 2026-04-21 17:29:31*
%MOMM*%
%LPD*%
G01*
G04 APERTURE LIST*
%ADD10C,0.120000*%
%ADD11C,0.100000*%
G04 APERTURE END LIST*
D10*
%TO.C,P2*%
X348990000Y-276340000D02*
X348990000Y-271660000D01*
X352560000Y-269940000D02*
X356810000Y-269940000D01*
X352560000Y-278060000D02*
X356810000Y-278060000D01*
X355210000Y-270960000D02*
X355210000Y-272240000D01*
X355210000Y-275760000D02*
X358100000Y-275760000D01*
X355210000Y-277040000D02*
X355210000Y-275760000D01*
X356810000Y-269940000D02*
X356810000Y-270960000D01*
X356810000Y-270960000D02*
X355210000Y-270960000D01*
X356810000Y-277040000D02*
X355210000Y-277040000D01*
X356810000Y-278060000D02*
X356810000Y-277040000D01*
%TO.C,P5*%
X336990000Y-213840000D02*
X336990000Y-209160000D01*
X340560000Y-207440000D02*
X344810000Y-207440000D01*
X340560000Y-215560000D02*
X344810000Y-215560000D01*
X343210000Y-208460000D02*
X343210000Y-209740000D01*
X343210000Y-213260000D02*
X346100000Y-213260000D01*
X343210000Y-214540000D02*
X343210000Y-213260000D01*
X344810000Y-207440000D02*
X344810000Y-208460000D01*
X344810000Y-208460000D02*
X343210000Y-208460000D01*
X344810000Y-214540000D02*
X343210000Y-214540000D01*
X344810000Y-215560000D02*
X344810000Y-214540000D01*
D11*
%TO.C,H1*%
X147405877Y-275700000D02*
G75*
G02*
X140594123Y-275700000I-3405877J0D01*
G01*
X140594123Y-275700000D02*
G75*
G02*
X147405877Y-275700000I3405877J0D01*
G01*
%TO.C,H8*%
X464905877Y-275700000D02*
G75*
G02*
X458094123Y-275700000I-3405877J0D01*
G01*
X458094123Y-275700000D02*
G75*
G02*
X464905877Y-275700000I3405877J0D01*
G01*
%TO.C,H12*%
X324405877Y-223700000D02*
G75*
G02*
X317594123Y-223700000I-3405877J0D01*
G01*
X317594123Y-223700000D02*
G75*
G02*
X324405877Y-223700000I3405877J0D01*
G01*
D10*
%TO.C,P1*%
X260590000Y-143990000D02*
X260590000Y-145010000D01*
X260590000Y-145010000D02*
X262190000Y-145010000D01*
X260590000Y-151090000D02*
X262190000Y-151090000D01*
X260590000Y-152110000D02*
X260590000Y-151090000D01*
X262190000Y-145010000D02*
X262190000Y-146290000D01*
X262190000Y-146290000D02*
X259300000Y-146290000D01*
X262190000Y-151090000D02*
X262190000Y-149810000D01*
X264840000Y-143990000D02*
X260590000Y-143990000D01*
X264840000Y-152110000D02*
X260590000Y-152110000D01*
X268410000Y-145710000D02*
X268410000Y-150390000D01*
%TO.C,P6*%
X336490000Y-150040000D02*
X336490000Y-145360000D01*
X340060000Y-143640000D02*
X344310000Y-143640000D01*
X340060000Y-151760000D02*
X344310000Y-151760000D01*
X342710000Y-144660000D02*
X342710000Y-145940000D01*
X342710000Y-149460000D02*
X345600000Y-149460000D01*
X342710000Y-150740000D02*
X342710000Y-149460000D01*
X344310000Y-143640000D02*
X344310000Y-144660000D01*
X344310000Y-144660000D02*
X342710000Y-144660000D01*
X344310000Y-150740000D02*
X342710000Y-150740000D01*
X344310000Y-151760000D02*
X344310000Y-150740000D01*
D11*
%TO.C,H7*%
X464905877Y-85700000D02*
G75*
G02*
X458094123Y-85700000I-3405877J0D01*
G01*
X458094123Y-85700000D02*
G75*
G02*
X464905877Y-85700000I3405877J0D01*
G01*
%TO.C,H11*%
X286405877Y-223700000D02*
G75*
G02*
X279594123Y-223700000I-3405877J0D01*
G01*
X279594123Y-223700000D02*
G75*
G02*
X286405877Y-223700000I3405877J0D01*
G01*
%TO.C,H3*%
X239905877Y-275700000D02*
G75*
G02*
X233094123Y-275700000I-3405877J0D01*
G01*
X233094123Y-275700000D02*
G75*
G02*
X239905877Y-275700000I3405877J0D01*
G01*
D10*
%TO.C,P4*%
X260340000Y-207640000D02*
X260340000Y-208660000D01*
X260340000Y-208660000D02*
X261940000Y-208660000D01*
X260340000Y-214740000D02*
X261940000Y-214740000D01*
X260340000Y-215760000D02*
X260340000Y-214740000D01*
X261940000Y-208660000D02*
X261940000Y-209940000D01*
X261940000Y-209940000D02*
X259050000Y-209940000D01*
X261940000Y-214740000D02*
X261940000Y-213460000D01*
X264590000Y-207640000D02*
X260340000Y-207640000D01*
X264590000Y-215760000D02*
X260340000Y-215760000D01*
X268160000Y-209360000D02*
X268160000Y-214040000D01*
D11*
%TO.C,H5*%
X369905877Y-85700000D02*
G75*
G02*
X363094123Y-85700000I-3405877J0D01*
G01*
X363094123Y-85700000D02*
G75*
G02*
X369905877Y-85700000I3405877J0D01*
G01*
%TO.C,H10*%
X324405877Y-136700000D02*
G75*
G02*
X317594123Y-136700000I-3405877J0D01*
G01*
X317594123Y-136700000D02*
G75*
G02*
X324405877Y-136700000I3405877J0D01*
G01*
%TO.C,H6*%
X239905877Y-85700000D02*
G75*
G02*
X233094123Y-85700000I-3405877J0D01*
G01*
X233094123Y-85700000D02*
G75*
G02*
X239905877Y-85700000I3405877J0D01*
G01*
D10*
%TO.C,P3*%
X259840000Y-80640000D02*
X259840000Y-81660000D01*
X259840000Y-81660000D02*
X261440000Y-81660000D01*
X259840000Y-87740000D02*
X261440000Y-87740000D01*
X259840000Y-88760000D02*
X259840000Y-87740000D01*
X261440000Y-81660000D02*
X261440000Y-82940000D01*
X261440000Y-82940000D02*
X258550000Y-82940000D01*
X261440000Y-87740000D02*
X261440000Y-86460000D01*
X264090000Y-80640000D02*
X259840000Y-80640000D01*
X264090000Y-88760000D02*
X259840000Y-88760000D01*
X267660000Y-82360000D02*
X267660000Y-87040000D01*
D11*
%TO.C,H2*%
X147405877Y-85700000D02*
G75*
G02*
X140594123Y-85700000I-3405877J0D01*
G01*
X140594123Y-85700000D02*
G75*
G02*
X147405877Y-85700000I3405877J0D01*
G01*
%TO.C,H4*%
X369905877Y-275700000D02*
G75*
G02*
X363094123Y-275700000I-3405877J0D01*
G01*
X363094123Y-275700000D02*
G75*
G02*
X369905877Y-275700000I3405877J0D01*
G01*
%TO.C,H9*%
X286405877Y-136700000D02*
G75*
G02*
X279594123Y-136700000I-3405877J0D01*
G01*
X279594123Y-136700000D02*
G75*
G02*
X286405877Y-136700000I3405877J0D01*
G01*
%TD*%
M02*
